{
.appVersion = "3108";
.formatVersion = 3;
axes = (
{
name = Weight;
tag = wght;
}
);
classes = (
{
automatic = 1;

glyphs = (
{
glyphname = A;
layers = (
{
anchors = (
{
name = bottom;
pos = (235,0);
},
{
name = ogonek;
pos = (313,52);
},
{
name = top;
pos = (235,680);
}
);
layerId = "3DD6C797-E5ED-486C-89DE-75EDF9B2F8B8";
shapes = (
{
closed = 1;
nodes = (
(467,613,l),
(488,558,l),
(22,686,l),
(76,716,l),
(13,484,l),
(-6,537,l),
(449,412,l),
(404,381,l)
);
},
{
closed = 1;
nodes = (
(230,147,l),
(54,195,l),
(15,49,l),
(191,1,l)
);
},
{
closed = 1;
nodes = (
(197,86,l),
(197,500,l),
(46,500,l),
(46,86,l)
);
},
{
closed = 1;
nodes = (
(455,147,l),
(279,195,l),
(240,49,l),
(416,1,l)
);
},
{
closed = 1;
nodes = (
(303,444,l),
(324,344,l),
(62,416,l),
(117,492,l),
(54,260,l),
(23,315,l),
(285,243,l),
(240,212,l)
);
},
{
closed = 1;
nodes = (
(422,86,l),
(422,526,l),
(271,526,l),
(271,86,l)
);
}
);
width = 470;
}
);
unicode = 65;
},
{
glyphname = AE;
layers = (
{
anchors = (
{
name = bottom;
pos = (235,0);
},
{
name = ogonek;
pos = (423,10);
},
{
name = top;
pos = (235,680);
}
);
layerId = "3DD6C797-E5ED-486C-89DE-75EDF9B2F8B8";
shapes = (
{
closed = 1;
nodes = (
(626,161,l),
(626,106,l),
(293,197,l),
(254,51,l),
(587,-40,l),
(563,-71,l)
);
},
{
closed = 1;
nodes = (
(422,86,l),
(422,482,l),
(271,482,l),
(271,86,l)
);
},
{
closed = 1;
nodes = (
(537,228,l),
(556,379,l),
(327,379,l),
(327,228,l)
);
},
{
closed = 1;
nodes = (
(673,652,l),
(703,601,l),
(222,646,l),
(270,685,l),
(248,446,l),
(220,495,l),
(690,450,l),
(651,412,l)
);
},
{
closed = 1;
nodes = (
(457,613,l),
(488,558,l),
(22,686,l),
(76,716,l),
(13,484,l),
(-6,537,l),
(449,412,l),
(394,381,l)
);
},
{
closed = 1;
nodes = (
(230,147,l),
(54,195,l),
(15,49,l),
(191,1,l)
);
},
{
closed = 1;
nodes = (
(197,86,l),
(197,500,l),
(46,500,l),
(46,86,l)
);
},
{
closed = 1;
nodes = (
(303,444,l),
(324,344,l),
(62,416,l),
(117,492,l),
(54,260,l),
(23,315,l),
(285,243,l),
(240,212,l)
);
},
{
closed = 1;
nodes = (
(422,86,l),
(422,526,l),
(271,526,l),
(271,86,l)
);
}
);
width = 684;
}
);
unicode = 198;
},
{
glyphname = B;
layers = (
{
layerId = "3DD6C797-E5ED-486C-89DE-75EDF9B2F8B8";
shapes = (
{
closed = 1;
nodes = (
(241,-49,l),
(455,76,l),
(455,95,l),
(12,217,l),
(66,247,l),
(3,15,l),
(-16,68,l),
(439,-57,l)
);
},
{
closed = 1;
nodes = (
(230,171,l),
(230,490,l),
(79,490,l),
(79,171,l)
);
},
{
closed = 1;
nodes = (
(455,76,l),
(455,331,l),
(304,331,l),
(304,76,l)
);
},
{
closed = 1;
nodes = (
(455,331,l),
(201,401,l),
(274,477,l),
(202,211,l),
(156,256,l),
(416,185,l)
);
},
{
closed = 1;
nodes = (
(465,613,l),
(521,558,l),
(55,686,l),
(109,716,l),
(46,484,l),
(27,537,l),
(482,412,l),
(402,381,l)
);
},
{
closed = 1;
nodes = (
(455,375,l),
(455,576,l),
(304,576,l),
(304,333,l)
);
}
);
width = 470;
}
);
unicode = 66;
},
{
glyphname = C;
layers = (
{
anchors = (
{
name = bottom;
pos = (206,0);
},
{
name = top;
pos = (246,700);
}
);
layerId = "3DD6C797-E5ED-486C-89DE-75EDF9B2F8B8";
shapes = (
{
closed = 1;
nodes = (
(476,570,l),
(53,686,l),
(107,716,l),
(44,484,l),
(25,537,l),
(437,424,l)
);
},
{
closed = 1;
nodes = (
(356,177,l),
(375,111,l),
(46,206,l),
(61,239,l),
(1,6,l),
(9,62,l),
(375,-38,l),
(296,-58,l)
);
},
{
closed = 1;
nodes = (
(228,171,l),
(228,490,l),
(77,490,l),
(77,171,l)
);
},
{
closed = 1;
nodes = (
(525,41,l),
(474,-14,l),
(411,218,l),
(486,187,l),
(267,127,l),
(306,-19,l)
);
}
);
width = 491;
}
);
unicode = 67;
},
{
glyphname = D;
layers = (
{
anchors = (
{
name = bottom;
pos = (246,-50);
},
{
name = center;
pos = (246,350);
},
{
name = top;
pos = (246,700);
}
);
layerId = "3DD6C797-E5ED-486C-89DE-75EDF9B2F8B8";
shapes = (
{
closed = 1;
nodes = (
(476,570,l),
(53,686,l),
(107,716,l),
(44,484,l),
(25,537,l),
(437,424,l)
);
},
{
closed = 1;
nodes = (
(228,171,l),
(228,490,l),
(77,490,l),
(77,171,l)
);
},
{
closed = 1;
nodes = (
(476,86,l),
(476,570,l),
(325,570,l),
(325,86,l)
);
},
{
closed = 1;
nodes = (
(396,177,l),
(411,105,l),
(46,206,l),
(61,239,l),
(1,6,l),
(9,62,l),
(375,-38,l),
(336,-58,l)
);
}
);
width = 491;
}
);
unicode = 68;
},
{
glyphname = Eth;
layers = (
{
layerId = "3DD6C797-E5ED-486C-89DE-75EDF9B2F8B8";
shapes = (
{
closed = 1;
nodes = (
(311,444,l),
(332,344,l),
(19,430,l),
(75,492,l),
(12,260,l),
(-13,327,l),
(293,243,l),
(248,212,l)
);
},
{
ref = D;
}
);
width = 491;
}
);
unicode = 208;
},
{
glyphname = E;
layers = (
{
anchors = (
{
name = bottom;
pos = (224,0);
},
{
name = ogonek;
pos = (172,52);
},
{
name = top;
pos = (224,700);
},
{
name = topleft;
pos = (20,700);
}
);
layerId = "3DD6C797-E5ED-486C-89DE-75EDF9B2F8B8";
shapes = (
{
closed = 1;
nodes = (
(389,161,l),
(389,106,l),
(56,197,l),
(17,51,l),
(350,-40,l),
(326,-71,l)
);
},
{
closed = 1;
nodes = (
(185,86,l),
(185,482,l),
(34,482,l),
(34,86,l)
);
},
{
closed = 1;
nodes = (
(300,228,l),
(319,379,l),
(90,379,l),
(90,228,l)
);
},
{
closed = 1;
nodes = (
(436,652,l),
(466,601,l),
(-15,646,l),
(33,685,l),
(11,446,l),
(-17,495,l),
(453,450,l),
(414,412,l)
);
}
);
width = 447;
}
);
unicode = 69;
},
{
glyphname = F;
layers = (
{
layerId = "3DD6C797-E5ED-486C-89DE-75EDF9B2F8B8";
shapes = (
{
closed = 1;
nodes = (
(448,652,l),
(478,601,l),
(-3,646,l),
(45,685,l),
(23,446,l),
(-5,495,l),
(465,450,l),
(426,412,l)
);
},
{
closed = 1;
nodes = (
(230,146,l),
(54,194,l),
(15,48,l),
(191,0,l)
);
},
{
closed = 1;
nodes = (
(197,86,l),
(197,482,l),
(46,482,l),
(46,86,l)
);
},
{
closed = 1;
nodes = (
(312,241,l),
(331,350,l),
(102,350,l),
(102,241,l)
);
}
);
width = 459;
}
);
unicode = 70;
},
{
glyphname = G;
layers = (
{
anchors = (
{
name = bottom;
pos = (297,0);
},
{
name = top;
pos = (297,700);
}
);
layerId = "3DD6C797-E5ED-486C-89DE-75EDF9B2F8B8";
shapes = (
{
closed = 1;
nodes = (
(476,570,l),
(53,686,l),
(107,716,l),
(44,484,l),
(25,537,l),
(437,424,l)
);
},
{
closed = 1;
nodes = (
(356,177,l),
(375,111,l),
(46,206,l),
(61,239,l),
(1,6,l),
(9,62,l),
(375,-38,l),
(296,-58,l)
);
},
{
closed = 1;
nodes = (
(228,168,l),
(228,490,l),
(77,490,l),
(77,168,l)
);
},
{
closed = 1;
nodes = (
(525,41,l),
(474,-14,l),
(411,218,l),
(486,187,l),
(267,127,l),
(306,-19,l)
);
},
{
closed = 1;
nodes = (
(525,-50,l),
(525,199,l),
(374,199,l),
(374,-50,l)
);
},
{
closed = 1;
nodes = (
(582,375,l),
(737,324,l),
(256,369,l),
(318,408,l),
(296,169,l),
(254,218,l),
(716,173,l),
(560,135,l)
);
}
);
width = 594;
}
);
unicode = 71;
},
{
glyphname = H;
layers = (
{
layerId = "3DD6C797-E5ED-486C-89DE-75EDF9B2F8B8";
shapes = (
{
closed = 1;
nodes = (
(445,86,l),
(445,526,l),
(294,526,l),
(294,86,l)
);
},
{
closed = 1;
nodes = (
(245,143,l),
(54,195,l),
(15,49,l),
(206,-3,l)
);
},
{
closed = 1;
nodes = (
(112,165,l),
(220,165,l),
(220,500,l),
(69,500,l),
(69,128,l)
);
},
{
closed = 1;
nodes = (
(478,147,l),
(302,195,l),
(263,49,l),
(439,1,l)
);
},
{
closed = 1;
nodes = (
(326,444,l),
(347,344,l),
(85,416,l),
(140,492,l),
(89,303,l),
(308,243,l),
(263,212,l)
);
},
{
closed = 1;
nodes = (
(251,613,l),
(307,558,l),
(25,635,l),
(76,666,l),
(13,434,l),
(-10,488,l),
(268,412,l),
(188,381,l)
);
}
);
width = 493;
}
);
unicode = 72;
},
{
glyphname = Hbar;
layers = (
{
layerId = "3DD6C797-E5ED-486C-89DE-75EDF9B2F8B8";
shapes = (
{
closed = 1;
nodes = (
(511,484,l),
(550,372,l),
(163,480,l),
(204,600,l),
(141,368,l),
(137,436,l),
(515,332,l),
(447,252,l)
);
},
{
ref = H;
}
);
width = 500;
}
);
unicode = 294;
},
{
glyphname = I;
layers = (
{
anchors = (
{
name = bottom;
pos = (123,0);
},
{
name = ogonek;
pos = (101,52);
},
{
name = top;
pos = (123,700);
},
{
name = topleft;
pos = (20,700);
}
);
layerId = "3DD6C797-E5ED-486C-89DE-75EDF9B2F8B8";
shapes = (
{
closed = 1;
nodes = (
(197,85,l),
(197,582,l),
(46,582,l),
(46,85,l)
);
},
{
closed = 1;
nodes = (
(230,146,l),
(54,194,l),
(15,48,l),
(191,0,l)
);
},
{
closed = 1;
nodes = (
(230,146,l),
(54,194,l),
(15,48,l),
(191,0,l)
);
},
{
closed = 1;
nodes = (
(230,626,l),
(54,674,l),
(15,528,l),
(191,480,l)
);
}
);
width = 245;
}
);
unicode = 73;
},
{
glyphname = J;
layers = (
{
layerId = "3DD6C797-E5ED-486C-89DE-75EDF9B2F8B8";
shapes = (
{
closed = 1;
nodes = (
(340,-124,l),
(340,465,l),
(189,465,l),
(189,-161,l)
);
},
{
closed = 1;
nodes = (
(228,-15,l),
(9,45,l),
(84,76,l),
(21,-156,l),
(-30,-101,l),
(189,-161,l)
);
},
{
closed = 1;
nodes = (
(392,652,l),
(444,601,l),
(-37,646,l),
(33,685,l),
(11,446,l),
(-39,495,l),
(431,450,l),
(370,412,l)
);
}
);
width = 403;
}
);
unicode = 74;
},
{
glyphname = K;
layers = (
{
anchors = (
{
name = bottom;
pos = (235,0);
},
{
name = top;
pos = (235,700);
}
);
layerId = "3DD6C797-E5ED-486C-89DE-75EDF9B2F8B8";
shapes = (
{
closed = 1;
nodes = (
(197,85,l),
(197,582,l),
(46,582,l),
(46,85,l)
);
},
{
closed = 1;
nodes = (
(230,146,l),
(54,194,l),
(15,48,l),
(191,0,l)
);
},
{
closed = 1;
nodes = (
(455,147,l),
(279,195,l),
(240,49,l),
(416,1,l)
);
},
{
closed = 1;
nodes = (
(422,86,l),
(422,312,l),
(271,312,l),
(271,86,l)
);
},
{
closed = 1;
nodes = (
(440,344,l),
(473,282,l),
(171,459,l),
(225,445,l),
(106,236,l),
(106,323,l),
(398,151,l),
(321,135,l)
);
},
{
closed = 1;
nodes = (
(230,626,l),
(54,674,l),
(15,528,l),
(191,480,l)
);
},
{
closed = 1;
nodes = (
(224,322,l),
(448,413,l),
(422,254,l),
(422,611,l),
(271,550,l),
(271,254,l)
);
}
);
width = 470;
}
);
unicode = 75;
},
{
glyphname = L;
layers = (
{
anchors = (
{
name = bottom;
pos = (214,0);
},
{
name = center;
pos = (214,350);
},
{
name = top;
pos = (154,700);
},
{
name = topright;
pos = (408,700);
}
);
layerId = "3DD6C797-E5ED-486C-89DE-75EDF9B2F8B8";
shapes = (
{
closed = 1;
nodes = (
(417,186,l),
(466,135,l),
(-15,180,l),
(39,219,l),
(17,-20,l),
(-17,29,l),
(453,-16,l),
(395,-54,l)
);
},
{
closed = 1;
nodes = (
(185,178,l),
(185,520,l),
(34,520,l),
(34,161,l)
);
},
{
closed = 1;
nodes = (
(263,615,l),
(73,666,l),
(34,520,l),
(224,469,l)
);
}
);
width = 428;
}
);
unicode = 76;
},
{
glyphname = Lslash;
layers = (
{
layerId = "3DD6C797-E5ED-486C-89DE-75EDF9B2F8B8";
shapes = (
{
closed = 1;
nodes = (
(-8,253,l),
(305,305,l),
(304,238,l),
(265,475,l),
(284,411,l),
(-36,358,l),
(-5,455,l),
(34,218,l)
);
},
{
pos = (37,0);
ref = L;
}
);
width = 465;
}
);
unicode = 321;
},
{
glyphname = M;
layers = (
{
layerId = "3DD6C797-E5ED-486C-89DE-75EDF9B2F8B8";
shapes = (
{
closed = 1;
nodes = (
(217,86,l),
(217,585,l),
(66,585,l),
(66,86,l)
);
},
{
closed = 1;
nodes = (
(250,147,l),
(74,195,l),
(35,49,l),
(211,1,l)
);
},
{
closed = 1;
nodes = (
(475,147,l),
(256,207,l),
(332,238,l),
(269,6,l),
(217,61,l),
(436,1,l)
);
},
{
closed = 1;
nodes = (
(228,625,l),
(273,570,l),
(54,630,l),
(15,484,l),
(234,424,l),
(165,393,l)
);
},
{
closed = 1;
nodes = (
(442,86,l),
(442,526,l),
(291,526,l),
(291,86,l)
);
},
{
closed = 1;
nodes = (
(700,147,l),
(481,207,l),
(557,238,l),
(494,6,l),
(442,61,l),
(661,1,l)
);
},
{
closed = 1;
nodes = (
(487,613,l),
(508,558,l),
(42,686,l),
(269,716,l),
(200,463,l),
(14,537,l),
(469,412,l),
(424,381,l)
);
},
{
closed = 1;
nodes = (
(667,86,l),
(667,526,l),
(516,526,l),
(516,86,l)
);
},
{
closed = 1;
nodes = (
(712,613,l),
(733,558,l),
(267,686,l),
(494,716,l),
(425,463,l),
(239,537,l),
(694,412,l),
(649,381,l)
);
}
);
width = 715;
}
);
unicode = 77;
},
{
glyphname = N;
layers = (
{
anchors = (
{
name = bottom;
pos = (245,0);
},
{
name = top;
pos = (245,700);
}
);
layerId = "3DD6C797-E5ED-486C-89DE-75EDF9B2F8B8";
shapes = (
{
closed = 1;
nodes = (
(217,86,l),
(217,585,l),
(66,585,l),
(66,86,l)
);
},
{
closed = 1;
nodes = (
(250,147,l),
(74,195,l),
(35,49,l),
(211,1,l)
);
},
{
closed = 1;
nodes = (
(475,147,l),
(256,207,l),
(332,238,l),
(269,6,l),
(217,61,l),
(436,1,l)
);
},
{
closed = 1;
nodes = (
(228,625,l),
(273,570,l),
(54,630,l),
(15,484,l),
(234,424,l),
(165,393,l)
);
},
{
closed = 1;
nodes = (
(442,86,l),
(442,526,l),
(291,526,l),
(291,86,l)
);
},
{
closed = 1;
nodes = (
(487,613,l),
(508,558,l),
(42,686,l),
(269,716,l),
(200,463,l),
(14,537,l),
(469,412,l),
(424,381,l)
);
}
);
width = 490;
}
);
unicode = 78;
},
{
glyphname = Eng;
layers = (
{
anchors = (
{
name = bottom;
pos = (245,0);
},
{
name = top;
pos = (245,700);
}
);
layerId = "3DD6C797-E5ED-486C-89DE-75EDF9B2F8B8";
shapes = (
{
closed = 1;
nodes = (
(217,86,l),
(217,585,l),
(66,585,l),
(66,86,l)
);
},
{
closed = 1;
nodes = (
(250,147,l),
(74,195,l),
(35,49,l),
(211,1,l)
);
},
{
closed = 1;
nodes = (
(228,625,l),
(273,570,l),
(54,630,l),
(15,484,l),
(234,424,l),
(165,393,l)
);
},
{
closed = 1;
nodes = (
(487,613,l),
(508,558,l),
(42,686,l),
(269,716,l),
(200,463,l),
(14,537,l),
(469,412,l),
(424,381,l)
);
},
{
closed = 1;
nodes = (
(442,-76,l),
(412,-2,l),
(239,46,l),
(274,77,l),
(211,-155,l),
(200,-100,l),
(419,-160,l)
);
},
{
closed = 1;
nodes = (
(487,-75,l),
(442,-150,l),
(442,482,l),
(291,482,l),
(291,-75,l)
);
}
);
width = 490;
}
);
unicode = 330;
},
{
glyphname = O;
layers = (
{
anchors = (
{
name = bottom;
pos = (221,0);
},
{
name = center;
pos = (221,350);
},
{
name = ogonek;
pos = (397,10);
},
{
name = top;
pos = (221,700);
},
{
name = topleft;
pos = (20,700);
},
{
name = topright;
pos = (421,700);
}
);
layerId = "3DD6C797-E5ED-486C-89DE-75EDF9B2F8B8";
shapes = (
{
closed = 1;
nodes = (
(15,52,l),
(368,-44,l),
(406,102,l),
(199,159,l),
(199,492,l),
(48,492,l),
(48,180,l)
);
},
{
closed = 1;
nodes = (
(457,526,l),
(37,641,l),
(73,672,l),
(13,438,l),
(15,490,l),
(273,419,l),
(273,86,l),
(424,86,l),
(424,398,l)
);
}
);
width = 441;
}
);
unicode = 79;
},
{
glyphname = Oslash;
layers = (
{
layerId = "3DD6C797-E5ED-486C-89DE-75EDF9B2F8B8";
shapes = (
{
closed = 1;
nodes = (
(261,392,l),
(484,617,l),
(496,547,l),
(325,716,l),
(405,691,l),
(177,460,l),
(145,557,l),
(315,387,l)
);
},
{
closed = 1;
nodes = (
(67,-126,l),
(290,99,l),
(302,29,l),
(131,198,l),
(211,173,l),
(-17,-58,l),
(-49,39,l),
(121,-131,l)
);
},
{
pos = (10,0);
ref = O;
}
);
width = 482;
}
);
unicode = 216;
},
{
glyphname = P;
layers = (
{
layerId = "3DD6C797-E5ED-486C-89DE-75EDF9B2F8B8";
shapes = (
{
closed = 1;
nodes = (
(197,85,l),
(197,582,l),
(46,582,l),
(46,85,l)
);
},
{
closed = 1;
nodes = (
(230,146,l),
(54,194,l),
(15,48,l),
(191,0,l)
);
},
{
closed = 1;
nodes = (
(144,210,l),
(294,168,l),
(445,284,l),
(183,356,l),
(224,387,l),
(161,155,l)
);
},
{
closed = 1;
nodes = (
(230,626,l),
(54,674,l),
(15,528,l),
(191,480,l)
);
},
{
closed = 1;
nodes = (
(445,256,l),
(445,509,l),
(294,509,l),
(294,168,l)
);
},
{
closed = 1;
nodes = (
(482,614,l),
(220,686,l),
(244,717,l),
(181,485,l),
(181,540,l),
(443,468,l)
);
}
);
width = 497;
}
);
unicode = 80;
},
{
glyphname = Thorn;
layers = (
{
layerId = "3DD6C797-E5ED-486C-89DE-75EDF9B2F8B8";
shapes = (
{
closed = 1;
nodes = (
(197,85,l),
(197,692,l),
(46,692,l),
(46,85,l)
);
},
{
closed = 1;
nodes = (
(230,146,l),
(54,194,l),
(15,48,l),
(191,0,l)
);
},
{
closed = 1;
nodes = (
(230,146,l),
(54,194,l),
(15,48,l),
(191,0,l)
);
},
{
closed = 1;
nodes = (
(144,210,l),
(294,168,l),
(445,284,l),
(183,356,l),
(224,387,l),
(161,155,l)
);
},
{
closed = 1;
nodes = (
(230,736,l),
(54,784,l),
(15,638,l),
(191,590,l)
);
},
{
closed = 1;
nodes = (
(445,256,l),
(445,449,l),
(294,449,l),
(294,168,l)
);
},
{
closed = 1;
nodes = (
(482,554,l),
(220,626,l),
(244,657,l),
(181,425,l),
(181,480,l),
(443,408,l)
);
}
);
width = 497;
}
);
unicode = 222;
},
{
glyphname = Q;
layers = (
{
layerId = "3DD6C797-E5ED-486C-89DE-75EDF9B2F8B8";
shapes = (
{
closed = 1;
nodes = (
(447,-3,l),
(271,45,l),
(232,-101,l),
(408,-149,l)
);
},
{
ref = O;
}
);
width = 462;
}
);
unicode = 81;
},
{
glyphname = R;
layers = (
{
anchors = (
{
name = bottom;
pos = (242,0);
},
{
name = top;
pos = (242,700);
}
);
layerId = "3DD6C797-E5ED-486C-89DE-75EDF9B2F8B8";
shapes = (
{
closed = 1;
nodes = (
(448,676,l),
(478,625,l),
(-3,670,l),
(45,709,l),
(23,470,l),
(-5,519,l),
(465,474,l),
(426,436,l)
);
},
{
closed = 1;
nodes = (
(230,146,l),
(54,194,l),
(15,48,l),
(191,0,l)
);
},
{
closed = 1;
nodes = (
(230,146,l),
(54,194,l),
(15,48,l),
(191,0,l)
);
},
{
closed = 1;
nodes = (
(197,85,l),
(197,506,l),
(46,506,l),
(46,85,l)
);
},
{
closed = 1;
nodes = (
(469,146,l),
(293,194,l),
(254,48,l),
(430,0,l)
);
},
{
closed = 1;
nodes = (
(430,235,l),
(279,235,l),
(279,41,l),
(430,0,l)
);
},
{
closed = 1;
nodes = (
(430,235,l),
(430,327,l),
(484,302,l),
(162,391,l),
(217,492,l),
(166,278,l),
(446,201,l),
(413,187,l)
);
},
{
closed = 1;
nodes = (
(430,374,l),
(430,486,l),
(279,486,l),
(279,277,l)
);
}
);
width = 484;
}
);
unicode = 82;
},
{
glyphname = S;
layers = (
{
anchors = (
{
name = bottom;
pos = (250,0);
},
{
name = top;
pos = (250,700);
}
);
layerId = "3DD6C797-E5ED-486C-89DE-75EDF9B2F8B8";
shapes = (
{
closed = 1;
nodes = (
(359,373,l),
(339,325,l),
(130,576,l),
(15,478,l),
(223,228,l),
(173,218,l)
);
},
{
closed = 1;
nodes = (
(450,116,l),
(143,200,l),
(70,63,l),
(310,-2,l)
);
},
{
closed = 1;
nodes = (
(484,144,l),
(484,260,l),
(324,449,l),
(365,459,l),
(182,303,l),
(209,351,l),
(425,95,l)
);
},
{
closed = 1;
nodes = (
(478,602,l),
(238,667,l),
(98,549,l),
(405,465,l)
);
}
);
width = 499;
}
);
unicode = 83;
},
{
glyphname = T;
layers = (
{
anchors = (
{
name = bottom;
pos = (159,28);
},
{
name = center;
pos = (224,350);
},
{
name = top;
pos = (224,700);
}
);
layerId = "3DD6C797-E5ED-486C-89DE-75EDF9B2F8B8";
shapes = (
{
closed = 1;
nodes = (
(436,652,l),
(466,601,l),
(-15,646,l),
(33,685,l),
(11,446,l),
(-17,495,l),
(453,450,l),
(414,412,l)
);
},
{
closed = 1;
nodes = (
(300,146,l),
(124,194,l),
(85,48,l),
(261,0,l)
);
},
{
closed = 1;
nodes = (
(300,146,l),
(124,194,l),
(85,48,l),
(261,0,l)
);
},
{
closed = 1;
nodes = (
(150,164,l),
(189,174,l),
(267,174,l),
(267,472,l),
(116,472,l),
(116,164,l)
);
}
);
width = 447;
}
);
unicode = 84;
},
{
glyphname = Tbar;
layers = (
{
layerId = "3DD6C797-E5ED-486C-89DE-75EDF9B2F8B8";
shapes = (
{
closed = 1;
nodes = (
(358,455,l),
(389,298,l),
(69,351,l),
(98,475,l),
(59,238,l),
(48,305,l),
(361,253,l),
(319,218,l)
);
},
{
ref = T;
}
);
width = 447;
}
);
unicode = 358;
},
{
glyphname = U;
layers = (
{
anchors = (
{
name = bottom;
pos = (245,0);
},
{
name = ogonek;
pos = (351,52);
},
{
name = top;
pos = (245,700);
},
{
name = topright;
pos = (470,700);
}
);
layerId = "3DD6C797-E5ED-486C-89DE-75EDF9B2F8B8";
shapes = (
{
closed = 1;
nodes = (
(424,45,l),
(424,545,l),
(273,545,l),
(273,45,l)
);
},
{
closed = 1;
nodes = (
(290,167,l),
(476,93,l),
(21,218,l),
(66,249,l),
(3,17,l),
(-18,72,l),
(448,-56,l),
(221,-86,l)
);
},
{
closed = 1;
nodes = (
(199,104,l),
(199,545,l),
(48,545,l),
(48,104,l)
);
},
{
closed = 1;
nodes = (
(475,146,l),
(256,206,l),
(325,237,l),
(262,5,l),
(217,60,l),
(436,0,l)
);
},
{
closed = 1;
nodes = (
(221,625,l),
(273,570,l),
(54,630,l),
(15,484,l),
(234,424,l),
(158,393,l)
);
},
{
closed = 1;
nodes = (
(455,582,l),
(279,630,l),
(240,484,l),
(416,436,l)
);
}
);
width = 490;
}
);
unicode = 85;
},
{
glyphname = V;
layers = (
{
layerId = "3DD6C797-E5ED-486C-89DE-75EDF9B2F8B8";
shapes = (
{
closed = 1;
nodes = (
(398,92,l),
(50,257,l),
(115,268,l),
(24,73,l),
(-8,116,l),
(240,0,l)
);
},
{
closed = 1;
nodes = (
(197,95,l),
(197,582,l),
(46,582,l),
(46,95,l)
);
},
{
closed = 1;
nodes = (
(324,49,l),
(429,110,l),
(458,216,l),
(374,606,l),
(483,473,l),
(247,422,l),
(225,582,l),
(350,0,l)
);
},
{
closed = 1;
nodes = (
(230,626,l),
(54,674,l),
(15,528,l),
(191,480,l)
);
},
{
closed = 1;
nodes = (
(453,544,l),
(277,592,l),
(238,446,l),
(414,398,l)
);
}
);
width = 473;
}
);
unicode = 86;
},
{
glyphname = W;
layers = (
{
anchors = (
{
name = bottom;
pos = (332,0);
},
{
name = top;
pos = (332,700);
}
);
layerId = "3DD6C797-E5ED-486C-89DE-75EDF9B2F8B8";
shapes = (
{
closed = 1;
nodes = (
(441,167,l),
(476,93,l),
(21,218,l),
(66,249,l),
(3,17,l),
(-18,72,l),
(448,-56,l),
(372,-86,l)
);
},
{
closed = 1;
nodes = (
(199,104,l),
(199,544,l),
(48,544,l),
(48,104,l)
);
},
{
closed = 1;
nodes = (
(665,167,l),
(701,93,l),
(246,218,l),
(291,249,l),
(228,17,l),
(207,72,l),
(673,-56,l),
(596,-86,l)
);
},
{
closed = 1;
nodes = (
(221,624,l),
(273,569,l),
(54,629,l),
(15,483,l),
(234,423,l),
(158,392,l)
);
},
{
closed = 1;
nodes = (
(424,104,l),
(424,544,l),
(273,544,l),
(273,104,l)
);
},
{
closed = 1;
nodes = (
(649,107,l),
(649,445,l),
(498,445,l),
(498,107,l)
);
},
{
closed = 1;
nodes = (
(446,624,l),
(498,569,l),
(279,629,l),
(240,483,l),
(459,423,l),
(383,392,l)
);
},
{
closed = 1;
nodes = (
(649,445,l),
(561,782,l),
(655,641,l),
(423,577,l),
(414,742,l),
(503,407,l)
);
}
);
width = 664;
}
);
unicode = 87;
},
{
glyphname = X;
layers = (
{
layerId = "3DD6C797-E5ED-486C-89DE-75EDF9B2F8B8";
shapes = (
{
closed = 1;
nodes = (
(400,-12,l),
(664,57,l),
(653,3,l),
(589,235,l),
(624,204,l),
(361,134,l),
(394,203,l),
(455,-29,l)
);
},
{
closed = 1;
nodes = (
(150,804,l),
(242,718,l),
(34,597,l),
(-8,774,l),
(470,-39,l),
(429,-11,l),
(617,106,l),
(662,-68,l)
);
},
{
closed = 1;
nodes = (
(34,496,l),
(297,566,l),
(264,497,l),
(203,729,l),
(258,712,l),
(-6,643,l),
(5,697,l),
(69,465,l)
);
},
{
closed = 1;
nodes = (
(261,203,l),
(294,134,l),
(31,204,l),
(66,235,l),
(2,3,l),
(-9,57,l),
(255,-12,l),
(200,-29,l)
);
},
{
closed = 1;
nodes = (
(38,106,l),
(226,-11,l),
(185,-39,l),
(663,774,l),
(621,597,l),
(413,718,l),
(505,804,l),
(-7,-68,l)
);
},
{
closed = 1;
nodes = (
(650,697,l),
(661,643,l),
(397,712,l),
(452,729,l),
(391,497,l),
(358,566,l),
(621,496,l),
(586,465,l)
);
}
);
width = 655;
}
);
unicode = 88;
},
{
glyphname = Y;
layers = (
{
anchors = (
{
name = bottom;
pos = (235,-298);
},
{
name = top;
pos = (235,700);
},
{
name = topleft;
pos = (20,700);
}
);
layerId = "3DD6C797-E5ED-486C-89DE-75EDF9B2F8B8";
shapes = (
{
closed = 1;
nodes = (
(424,-97,l),
(424,511,l),
(273,511,l),
(273,-97,l)
);
},
{
closed = 1;
nodes = (
(433,-63,l),
(476,-110,l),
(48,1,l),
(124,34,l),
(64,-199,l),
(11,-143,l),
(485,-272,l),
(373,-298,l)
);
},
{
closed = 1;
nodes = (
(290,167,l),
(476,93,l),
(21,218,l),
(66,249,l),
(3,17,l),
(-18,72,l),
(448,-56,l),
(221,-86,l)
);
},
{
closed = 1;
nodes = (
(199,104,l),
(199,545,l),
(48,545,l),
(48,104,l)
);
},
{
closed = 1;
nodes = (
(221,625,l),
(273,570,l),
(54,630,l),
(15,484,l),
(234,424,l),
(158,393,l)
);
},
{
closed = 1;
nodes = (
(455,582,l),
(279,630,l),
(240,484,l),
(416,436,l)
);
}
);
width = 470;
}
);
unicode = 89;
},
{
glyphname = Z;
layers = (
{
anchors = (
{
name = bottom;
pos = (252,0);
},
{
name = center;
pos = (252,350);
},
{
name = top;
pos = (252,700);
}
);
layerId = "3DD6C797-E5ED-486C-89DE-75EDF9B2F8B8";
shapes = (
{
closed = 1;
nodes = (
(187,112,l),
(462,498,l),
(447,419,l),
(250,558,l),
(338,584,l),
(35,158,l),
(37,172,l),
(214,39,l)
);
},
{
closed = 1;
nodes = (
(460,192,l),
(492,142,l),
(10,170,l),
(44,211,l),
(31,-29,l),
(13,19,l),
(484,-10,l),
(447,-49,l)
);
},
{
closed = 1;
nodes = (
(498,173,l),
(560,118,l),
(341,178,l),
(302,32,l),
(521,-28,l),
(435,-59,l)
);
},
{
closed = 1;
nodes = (
(211,630,l),
(273,575,l),
(54,635,l),
(15,489,l),
(234,429,l),
(148,398,l)
);
},
{
closed = 1;
nodes = (
(460,659,l),
(492,609,l),
(10,638,l),
(56,678,l),
(43,439,l),
(13,487,l),
(484,458,l),
(447,419,l)
);
}
);
width = 503;
}
);
unicode = 90;
},
{
glyphname = a;
layers = (
{
anchors = (
{
name = bottom;
pos = (224,0);
},
{
name = ogonek;
pos = (295,52);
},
{
name = top;
pos = (222,590);
}
);
layerId = "3DD6C797-E5ED-486C-89DE-75EDF9B2F8B8";
shapes = (
{
closed = 1;
nodes = (
(426,143,l),
(374,157,l),
(374,290,l),
(394,285,l),
(432,432,l),
(135,510,l),
(98,364,l),
(223,331,l),
(223,150,l),
(196,49,l),
(387,-3,l)
);
},
{
closed = 1;
nodes = (
(245,143,l),
(177,162,l),
(177,392,l),
(26,392,l),
(26,90,l),
(15,49,l),
(206,-3,l)
);
}
);
width = 447;
}
);
unicode = 97;
},
{
glyphname = ae;
layers = (
{
anchors = (
{
name = bottom;
pos = (224,0);
},
{
name = ogonek;
pos = (402,10);
},
{
name = top;
pos = (222,540);
}
);
layerId = "3DD6C797-E5ED-486C-89DE-75EDF9B2F8B8";
shapes = (
{
closed = 1;
nodes = (
(575,365,l),
(389,523,l),
(292,407,l),
(478,249,l)
);
},
{
closed = 1;
nodes = (
(374,86,l),
(374,392,l),
(223,392,l),
(223,86,l)
);
},
{
closed = 1;
nodes = (
(275,132,l),
(494,192,l),
(443,381,l),
(498,305,l),
(236,233,l),
(257,333,l),
(320,101,l)
);
},
{
closed = 1;
nodes = (
(406,476,l),
(476,421,l),
(135,510,l),
(98,364,l),
(437,273,l),
(346,241,l)
);
},
{
closed = 1;
nodes = (
(245,143,l),
(54,195,l),
(15,49,l),
(206,-3,l)
);
},
{
closed = 1;
nodes = (
(177,86,l),
(177,392,l),
(26,392,l),
(26,86,l)
);
},
{
closed = 1;
nodes = (
(374,86,l),
(374,392,l),
(223,392,l),
(223,86,l)
);
},
{
closed = 1;
nodes = (
(535,118,l),
(245,197,l),
(206,51,l),
(496,-28,l)
);
}
);
width = 590;
}
);
unicode = 230;
},
{
glyphname = b;
layers = (
{
layerId = "3DD6C797-E5ED-486C-89DE-75EDF9B2F8B8";
shapes = (
{
closed = 1;
nodes = (
(388,92,l),
(40,257,l),
(105,268,l),
(14,73,l),
(-18,116,l),
(230,0,l)
);
},
{
closed = 1;
nodes = (
(197,105,l),
(197,582,l),
(46,582,l),
(46,105,l)
);
},
{
closed = 1;
nodes = (
(314,49,l),
(419,110,l),
(448,216,l),
(389,489,l),
(457,371,l),
(221,320,l),
(237,480,l),
(340,0,l)
);
},
{
closed = 1;
nodes = (
(416,362,l),
(251,440,l),
(188,303,l),
(353,225,l)
);
},
{
closed = 1;
nodes = (
(230,626,l),
(54,674,l),
(15,528,l),
(191,480,l)
);
}
);
width = 463;
}
);
unicode = 98;
},
{
glyphname = c;
layers = (
{
anchors = (
{
name = bottom;
pos = (167,0);
},
{
name = top;
pos = (197,550);
}
);
layerId = "3DD6C797-E5ED-486C-89DE-75EDF9B2F8B8";
shapes = (
{
closed = 1;
nodes = (
(374,441,l),
(77,519,l),
(40,373,l),
(336,294,l)
);
},
{
closed = 1;
nodes = (
(288,186,l),
(288,131,l),
(54,195,l),
(15,49,l),
(249,-15,l),
(225,-46,l)
);
},
{
closed = 1;
nodes = (
(177,86,l),
(177,352,l),
(26,352,l),
(26,86,l)
);
},
{
closed = 1;
nodes = (
(445,109,l),
(399,38,l),
(277,247,l),
(369,240,l),
(158,119,l),
(234,-11,l)
);
}
);
width = 394;
}
);
unicode = 99;
},
{
glyphname = d;
layers = (
{
anchors = (
{
name = bottom;
pos = (205,-70);
},
{
name = center;
pos = (205,250);
},
{
name = top;
pos = (167,700);
},
{
name = topright;
pos = (390,500);
}
);
layerId = "3DD6C797-E5ED-486C-89DE-75EDF9B2F8B8";
shapes = (
{
closed = 1;
nodes = (
(225,149,l),
(449,240,l),
(424,146,l),
(213,667,l),
(73,610,l),
(284,89,l)
);
},
{
closed = 1;
nodes = (
(290,133,l),
(53,195,l),
(15,50,l),
(252,-14,l)
);
},
{
closed = 1;
nodes = (
(176,86,l),
(176,392,l),
(25,392,l),
(25,86,l)
);
},
{
closed = 1;
nodes = (
(395,86,l),
(395,218,l),
(244,218,l),
(244,86,l)
);
}
);
width = 410;
}
);
unicode = 100;
},
{
glyphname = dcroat;
layers = (
{
layerId = "3DD6C797-E5ED-486C-89DE-75EDF9B2F8B8";
shapes = (
{
closed = 1;
nodes = (
(41,432,l),
(347,516,l),
(322,449,l),
(259,681,l),
(315,619,l),
(2,533,l),
(23,633,l),
(86,401,l)
);
},
{
ref = d;
}
);
width = 410;
}
);
unicode = 273;
},
{
glyphname = e;
layers = (
{
anchors = (
{
name = bottom;
pos = (200,0);
},
{
name = ogonek;
pos = (149,52);
},
{
name = top;
pos = (180,580);
}
);
layerId = "3DD6C797-E5ED-486C-89DE-75EDF9B2F8B8";
shapes = (
{
closed = 1;
nodes = (
(384,365,l),
(198,523,l),
(101,407,l),
(287,249,l)
);
},
{
closed = 1;
nodes = (
(344,118,l),
(54,197,l),
(15,51,l),
(305,-28,l)
);
},
{
closed = 1;
nodes = (
(183,86,l),
(183,392,l),
(32,392,l),
(32,86,l)
);
},
{
closed = 1;
nodes = (
(84,132,l),
(303,192,l),
(252,381,l),
(307,305,l),
(45,233,l),
(66,333,l),
(129,101,l)
);
}
);
width = 399;
}
);
unicode = 101;
},
{
glyphname = f;
layers = (
{
layerId = "3DD6C797-E5ED-486C-89DE-75EDF9B2F8B8";
shapes = (
{
closed = 1;
nodes = (
(185,462,l),
(34,462,l),
(34,44,l),
(185,2,l)
);
},
{
closed = 1;
nodes = (
(240,241,l),
(259,350,l),
(90,350,l),
(90,241,l)
);
},
{
closed = 1;
nodes = (
(311,632,l),
(466,581,l),
(-15,626,l),
(33,665,l),
(11,426,l),
(-17,475,l),
(445,430,l),
(289,392,l)
);
}
);
width = 323;
}
);
unicode = 102;
},
{
glyphname = g;
layers = (
{
anchors = (
{
name = bottom;
pos = (222,-260);
},
{
name = top;
pos = (222,580);
}
);
layerId = "3DD6C797-E5ED-486C-89DE-75EDF9B2F8B8";
shapes = (
{
closed = 1;
nodes = (
(432,432,l),
(135,510,l),
(98,364,l),
(394,285,l)
);
},
{
closed = 1;
nodes = (
(245,143,l),
(54,195,l),
(15,49,l),
(206,-3,l)
);
},
{
closed = 1;
nodes = (
(177,177,l),
(177,392,l),
(26,392,l),
(26,177,l)
);
},
{
closed = 1;
nodes = (
(386,-33,l),
(469,-103,l),
(84,3,l),
(107,41,l),
(44,-191,l),
(36,-141,l),
(430,-249,l),
(323,-265,l)
);
},
{
closed = 1;
nodes = (
(374,-77,l),
(374,392,l),
(223,392,l),
(223,-77,l)
);
}
);
width = 447;
}
);
unicode = 103;
},
{
glyphname = h;
layers = (
{
layerId = "3DD6C797-E5ED-486C-89DE-75EDF9B2F8B8";
shapes = (
{
closed = 1;
nodes = (
(220,86,l),
(220,640,l),
(69,579,l),
(69,86,l)
);
},
{
closed = 1;
nodes = (
(245,143,l),
(54,195,l),
(15,49,l),
(206,-3,l)
);
},
{
closed = 1;
nodes = (
(423,61,l),
(423,390,l),
(272,390,l),
(272,0,l)
);
},
{
closed = 1;
nodes = (
(448,481,l),
(474,436,l),
(240,500,l),
(201,354,l),
(435,290,l),
(385,249,l)
);
}
);
width = 446;
}
);
unicode = 104;
},
{
glyphname = hbar;
layers = (
{
layerId = "3DD6C797-E5ED-486C-89DE-75EDF9B2F8B8";
shapes = (
{
closed = 1;
nodes = (
(-6,491,l),
(307,543,l),
(306,476,l),
(267,713,l),
(286,649,l),
(-34,596,l),
(-3,693,l),
(36,456,l)
);
},
{
closed = 1;
nodes = (
(220,86,l),
(220,700,l),
(69,639,l),
(69,86,l)
);
},
{
closed = 1;
nodes = (
(245,143,l),
(54,195,l),
(15,49,l),
(206,-3,l)
);
},
{
closed = 1;
nodes = (
(423,61,l),
(423,390,l),
(272,390,l),
(272,0,l)
);
},
{
closed = 1;
nodes = (
(431,448,l),
(240,500,l),
(201,354,l),
(392,302,l)
);
}
);
width = 446;
}
);
unicode = 295;
},
{
glyphname = idotless;
layers = (
{
anchors = (
{
name = bottom;
pos = (123,-50);
},
{
name = ogonek;
pos = (101,52);
},
{
name = top;
pos = (117,500);
}
);
layerId = "3DD6C797-E5ED-486C-89DE-75EDF9B2F8B8";
shapes = (
{
closed = 1;
nodes = (
(197,85,l),
(197,392,l),
(46,392,l),
(46,85,l)
);
},
{
closed = 1;
nodes = (
(230,146,l),
(54,194,l),
(15,48,l),
(191,0,l)
);
},
{
closed = 1;
nodes = (
(230,436,l),
(54,484,l),
(15,338,l),
(191,290,l)
);
}
);
width = 245;
}
);
unicode = 305;
},
{
glyphname = jdotless;
layers = (
{
anchors = (
{
name = bottom;
pos = (123,-200);
},
{
name = top;
pos = (117,500);
}
);
layerId = "3DD6C797-E5ED-486C-89DE-75EDF9B2F8B8";
shapes = (
{
closed = 1;
nodes = (
(197,-124,l),
(197,373,l),
(46,373,l),
(46,-161,l)
);
},
{
closed = 1;
nodes = (
(230,436,l),
(54,484,l),
(15,338,l),
(191,290,l)
);
}
);
width = 245;
}
);
unicode = 567;
},
{
glyphname = k;
layers = (
{
anchors = (
{
name = bottom;
pos = (208,0);
},
{
name = top;
pos = (208,700);
}
);
layerId = "3DD6C797-E5ED-486C-89DE-75EDF9B2F8B8";
shapes = (
{
closed = 1;
nodes = (
(197,86,l),
(197,640,l),
(46,579,l),
(46,86,l)
);
},
{
closed = 1;
nodes = (
(230,146,l),
(54,194,l),
(15,48,l),
(191,0,l)
);
},
{
closed = 1;
nodes = (
(400,61,l),
(400,312,l),
(249,312,l),
(249,0,l)
);
},
{
closed = 1;
nodes = (
(418,344,l),
(451,282,l),
(149,459,l),
(203,445,l),
(84,236,l),
(84,323,l),
(376,151,l),
(299,135,l)
);
},
{
closed = 1;
nodes = (
(451,445,l),
(400,383,l),
(400,615,l),
(428,606,l),
(127,429,l),
(116,424,l),
(371,366,l),
(202,298,l)
);
}
);
width = 415;
}
);
unicode = 107;
},
{
glyphname = l;
layers = (
{
anchors = (
{
name = bottom;
pos = (118,0);
},
{
name = center;
pos = (118,400);
},
{
name = top;
pos = (118,700);
},
{
name = topright;
pos = (215,800);
}
);
layerId = "3DD6C797-E5ED-486C-89DE-75EDF9B2F8B8";
shapes = (
{
closed = 1;
nodes = (
(192,85,l),
(192,659,l),
(41,622,l),
(41,85,l)
);
},
{
closed = 1;
nodes = (
(225,146,l),
(49,194,l),
(10,48,l),
(186,0,l)
);
}
);
width = 235;
}
);
unicode = 108;
},
{
glyphname = lslash;
layers = (
{
layerId = "3DD6C797-E5ED-486C-89DE-75EDF9B2F8B8";
shapes = (
{
closed = 1;
nodes = (
(-3,308,l),
(310,360,l),
(309,293,l),
(270,530,l),
(289,466,l),
(-31,413,l),
(0,510,l),
(39,273,l)
);
},
{
pos = (33,0);
ref = l;
}
);
width = 313;
}
);
unicode = 322;
},
{
glyphname = m;
layers = (
{
layerId = "3DD6C797-E5ED-486C-89DE-75EDF9B2F8B8";
shapes = (
{
closed = 1;
nodes = (
(660,440,l),
(441,500,l),
(402,354,l),
(621,294,l)
);
},
{
closed = 1;
nodes = (
(230,146,l),
(54,194,l),
(15,48,l),
(191,0,l)
);
},
{
closed = 1;
nodes = (
(445,146,l),
(269,194,l),
(230,48,l),
(406,0,l)
);
},
{
closed = 1;
nodes = (
(412,85,l),
(412,396,l),
(261,396,l),
(261,85,l)
);
},
{
closed = 1;
nodes = (
(660,146,l),
(484,194,l),
(445,48,l),
(621,0,l)
);
},
{
closed = 1;
nodes = (
(445,440,l),
(226,500,l),
(187,354,l),
(406,294,l)
);
},
{
closed = 1;
nodes = (
(627,85,l),
(627,396,l),
(476,396,l),
(476,85,l)
);
},
{
closed = 1;
nodes = (
(197,85,l),
(197,392,l),
(46,392,l),
(46,85,l)
);
},
{
closed = 1;
nodes = (
(230,436,l),
(54,484,l),
(15,338,l),
(191,290,l)
);
}
);
width = 675;
}
);
unicode = 109;
},
{
glyphname = n;
layers = (
{
anchors = (
{
name = bottom;
pos = (230,0);
},
{
name = top;
pos = (230,550);
}
);
layerId = "3DD6C797-E5ED-486C-89DE-75EDF9B2F8B8";
shapes = (
{
closed = 1;
nodes = (
(445,440,l),
(226,500,l),
(187,354,l),
(406,294,l)
);
},
{
closed = 1;
nodes = (
(230,146,l),
(54,194,l),
(15,48,l),
(191,0,l)
);
},
{
closed = 1;
nodes = (
(197,85,l),
(197,396,l),
(46,396,l),
(46,85,l)
);
},
{
closed = 1;
nodes = (
(445,146,l),
(269,194,l),
(230,48,l),
(406,0,l)
);
},
{
closed = 1;
nodes = (
(230,436,l),
(54,484,l),
(15,338,l),
(191,290,l)
);
},
{
closed = 1;
nodes = (
(412,85,l),
(412,396,l),
(261,396,l),
(261,85,l)
);
}
);
width = 460;
}
);
unicode = 110;
},
{
glyphname = eng;
layers = (
{
anchors = (
{
name = bottom;
pos = (230,0);
},
{
name = top;
pos = (230,550);
}
);
layerId = "3DD6C797-E5ED-486C-89DE-75EDF9B2F8B8";
shapes = (
{
closed = 1;
nodes = (
(445,440,l),
(226,500,l),
(187,354,l),
(406,294,l)
);
},
{
closed = 1;
nodes = (
(230,146,l),
(54,194,l),
(15,48,l),
(191,0,l)
);
},
{
closed = 1;
nodes = (
(197,85,l),
(197,396,l),
(46,396,l),
(46,85,l)
);
},
{
closed = 1;
nodes = (
(412,-76,l),
(382,-2,l),
(209,46,l),
(244,77,l),
(181,-155,l),
(170,-100,l),
(389,-160,l)
);
},
{
closed = 1;
nodes = (
(230,436,l),
(54,484,l),
(15,338,l),
(191,290,l)
);
},
{
closed = 1;
nodes = (
(457,-75,l),
(412,-150,l),
(412,396,l),
(261,396,l),
(261,-75,l)
);
}
);
width = 460;
}
);
unicode = 331;
},
{
glyphname = o;
layers = (
{
anchors = (
{
name = bottom;
pos = (212,0);
},
{
name = center;
pos = (212,250);
},
{
name = ogonek;
pos = (381,10);
},
{
name = top;
pos = (242,580);
},
{
name = topright;
pos = (403,500);
}
);
layerId = "3DD6C797-E5ED-486C-89DE-75EDF9B2F8B8";
shapes = (
{
closed = 1;
nodes = (
(417,477,l),
(488,422,l),
(22,550,l),
(122,580,l),
(59,348,l),
(-6,401,l),
(449,276,l),
(354,245,l)
);
},
{
closed = 1;
nodes = (
(385,86,l),
(385,360,l),
(234,360,l),
(234,86,l)
);
},
{
closed = 1;
nodes = (
(275,-22,l),
(242,-48,l),
(305,184,l),
(305,126,l),
(176,162,l),
(176,392,l),
(25,392,l),
(25,90,l),
(14,49,l)
);
}
);
width = 423;
}
);
unicode = 111;
},
{
glyphname = oslash;
layers = (
{
layerId = "3DD6C797-E5ED-486C-89DE-75EDF9B2F8B8";
shapes = (
{
closed = 1;
nodes = (
(215,310,l),
(438,535,l),
(450,465,l),
(279,634,l),
(359,609,l),
(131,378,l),
(99,475,l),
(269,305,l)
);
},
{
closed = 1;
nodes = (
(68,-110,l),
(291,115,l),
(303,45,l),
(132,214,l),
(212,189,l),
(-16,-42,l),
(-48,55,l),
(122,-115,l)
);
},
{
pos = (1,0);
ref = o;
}
);
width = 424;
}
);
unicode = 248;
},
{
glyphname = p;
layers = (
{
layerId = "3DD6C797-E5ED-486C-89DE-75EDF9B2F8B8";
shapes = (
{
closed = 1;
nodes = (
(197,-158,l),
(197,360,l),
(46,360,l),
(46,-195,l)
);
},
{
closed = 1;
nodes = (
(107,62,l),
(257,20,l),
(408,136,l),
(146,208,l),
(221,239,l),
(158,7,l)
);
},
{
closed = 1;
nodes = (
(408,108,l),
(408,361,l),
(257,361,l),
(257,20,l)
);
},
{
closed = 1;
nodes = (
(230,452,l),
(54,500,l),
(15,354,l),
(191,306,l)
);
},
{
closed = 1;
nodes = (
(445,440,l),
(226,500,l),
(187,354,l),
(406,294,l)
);
}
);
width = 460;
}
);
unicode = 112;
},
{
glyphname = thorn;
layers = (
{
layerId = "3DD6C797-E5ED-486C-89DE-75EDF9B2F8B8";
shapes = (
{
closed = 1;
nodes = (
(197,-158,l),
(197,550,l),
(46,550,l),
(46,-195,l)
);
},
{
closed = 1;
nodes = (
(107,62,l),
(257,20,l),
(408,136,l),
(146,208,l),
(221,239,l),
(158,7,l)
);
},
{
closed = 1;
nodes = (
(408,108,l),
(408,361,l),
(257,361,l),
(257,20,l)
);
},
{
closed = 1;
nodes = (
(230,642,l),
(54,690,l),
(15,544,l),
(191,496,l)
);
},
{
closed = 1;
nodes = (
(445,440,l),
(226,500,l),
(187,354,l),
(406,294,l)
);
}
);
width = 460;
}
);
unicode = 254;
},
{
glyphname = q;
layers = (
{
layerId = "3DD6C797-E5ED-486C-89DE-75EDF9B2F8B8";
shapes = (
{
closed = 1;
nodes = (
(374,-158,l),
(374,360,l),
(223,360,l),
(223,-195,l)
);
},
{
closed = 1;
nodes = (
(248,177,l),
(334,122,l),
(53,195,l),
(15,50,l),
(295,-26,l),
(188,-58,l)
);
},
{
closed = 1;
nodes = (
(176,86,l),
(176,392,l),
(25,392,l),
(25,86,l)
);
},
{
closed = 1;
nodes = (
(406,477,l),
(488,422,l),
(22,550,l),
(122,580,l),
(59,348,l),
(-6,401,l),
(449,276,l),
(343,245,l)
);
}
);
width = 423;
}
);
unicode = 113;
},
{
glyphname = r;
layers = (
{
anchors = (
{
name = bottom;
pos = (171,0);
},
{
name = top;
pos = (171,550);
}
);
layerId = "3DD6C797-E5ED-486C-89DE-75EDF9B2F8B8";
shapes = (
{
closed = 1;
nodes = (
(197,85,l),
(197,392,l),
(46,392,l),
(46,85,l)
);
},
{
closed = 1;
nodes = (
(230,146,l),
(54,194,l),
(15,48,l),
(191,0,l)
);
},
{
closed = 1;
nodes = (
(221,479,l),
(273,424,l),
(54,484,l),
(15,338,l),
(234,278,l),
(158,247,l)
);
},
{
closed = 1;
nodes = (
(340,479,l),
(431,424,l),
(212,484,l),
(173,338,l),
(392,278,l),
(277,247,l)
);
}
);
width = 342;
}
);
unicode = 114;
},
{
glyphname = s;
layers = (
{
anchors = (
{
name = bottom;
pos = (197,0);
},
{
name = top;
pos = (157,550);
}
);
layerId = "3DD6C797-E5ED-486C-89DE-75EDF9B2F8B8";
shapes = (
{
closed = 1;
nodes = (
(234,278,l),
(100,471,l),
(234,535,l),
(-37,307,l),
(-24,383,l),
(110,191,l)
);
},
{
closed = 1;
nodes = (
(315,116,l),
(52,188,l),
(120,229,l),
(5,12,l),
(-21,51,l),
(176,-2,l)
);
},
{
closed = 1;
nodes = (
(269,78,l),
(380,170,l),
(350,99,l),
(364,259,l),
(299,352,l),
(176,265,l),
(317,63,l)
);
},
{
closed = 1;
nodes = (
(388,494,l),
(191,547,l),
(268,564,l),
(60,388,l),
(51,429,l),
(315,357,l)
);
}
);
width = 393;
}
);
unicode = 115;
},
{
glyphname = germandbls;
layers = (
{
layerId = "3DD6C797-E5ED-486C-89DE-75EDF9B2F8B8";
shapes = (
{
closed = 1;
nodes = (
(198,-49,l),
(412,76,l),
(412,95,l),
(-31,217,l),
(253,202,l),
(190,-30,l),
(-59,68,l),
(396,-57,l)
);
},
{
closed = 1;
nodes = (
(187,100,l),
(187,490,l),
(36,490,l),
(36,0,l)
);
},
{
closed = 1;
nodes = (
(412,76,l),
(412,331,l),
(261,331,l),
(261,76,l)
);
},
{
closed = 1;
nodes = (
(412,331,l),
(158,401,l),
(231,477,l),
(159,211,l),
(113,256,l),
(373,185,l)
);
},
{
closed = 1;
nodes = (
(422,613,l),
(478,558,l),
(12,686,l),
(66,716,l),
(3,484,l),
(-16,537,l),
(439,412,l),
(359,381,l)
);
},
{
closed = 1;
nodes = (
(412,375,l),
(412,576,l),
(261,576,l),
(261,333,l)
);
}
);
width = 427;
}
);
unicode = 223;
},
{
glyphname = t;
layers = (
{
anchors = (
{
name = bottom;
pos = (138,0);
},
{
name = center;
pos = (138,250);
},
{
name = top;
pos = (118,690);
},
{
name = topright;
pos = (256,500);
}
);
layerId = "3DD6C797-E5ED-486C-89DE-75EDF9B2F8B8";
shapes = (
{
closed = 1;
nodes = (
(95,164,l),
(134,174,l),
(212,174,l),
(212,634,l),
(61,634,l),
(61,164,l)
);
},
{
closed = 1;
nodes = (
(245,146,l),
(69,194,l),
(30,48,l),
(206,0,l)
);
},
{
closed = 1;
nodes = (
(245,146,l),
(69,194,l),
(30,48,l),
(206,0,l)
);
},
{
closed = 1;
nodes = (
(265,602,l),
(466,536,l),
(-15,581,l),
(33,620,l),
(11,381,l),
(-17,430,l),
(453,385,l),
(243,362,l)
);
}
);
width = 276;
}
);
unicode = 116;
},
{
glyphname = tbar;
layers = (
{
layerId = "3DD6C797-E5ED-486C-89DE-75EDF9B2F8B8";
shapes = (
{
closed = 1;
nodes = (
(291,466,l),
(322,309,l),
(2,362,l),
(31,486,l),
(-8,249,l),
(-19,316,l),
(294,264,l),
(252,229,l)
);
},
{
ref = t;
}
);
width = 276;
}
);
unicode = 359;
},
{
glyphname = u;
layers = (
{
anchors = (
{
name = bottom;
pos = (230,0);
},
{
name = ogonek;
pos = (334,52);
},
{
name = top;
pos = (230,550);
},
{
name = topright;
pos = (440,550);
}
);
layerId = "3DD6C797-E5ED-486C-89DE-75EDF9B2F8B8";
shapes = (
{
closed = 1;
nodes = (
(273,134,l),
(54,194,l),
(15,48,l),
(234,-12,l)
);
},
{
closed = 1;
nodes = (
(199,92,l),
(199,415,l),
(48,415,l),
(48,92,l)
);
},
{
closed = 1;
nodes = (
(445,146,l),
(269,194,l),
(230,48,l),
(406,0,l)
);
},
{
closed = 1;
nodes = (
(230,452,l),
(54,500,l),
(15,354,l),
(191,306,l)
);
},
{
closed = 1;
nodes = (
(414,92,l),
(414,415,l),
(263,415,l),
(263,92,l)
);
},
{
closed = 1;
nodes = (
(445,452,l),
(269,500,l),
(230,354,l),
(406,306,l)
);
}
);
width = 460;
}
);
unicode = 117;
},
{
glyphname = v;
layers = (
{
layerId = "3DD6C797-E5ED-486C-89DE-75EDF9B2F8B8";
shapes = (
{
closed = 1;
nodes = (
(390,92,l),
(42,257,l),
(107,268,l),
(16,73,l),
(-16,116,l),
(232,0,l)
);
},
{
closed = 1;
nodes = (
(199,92,l),
(199,415,l),
(48,415,l),
(48,92,l)
);
},
{
closed = 1;
nodes = (
(230,452,l),
(54,500,l),
(15,354,l),
(191,306,l)
);
},
{
closed = 1;
nodes = (
(316,49,l),
(421,110,l),
(450,216,l),
(391,489,l),
(475,381,l),
(239,330,l),
(239,480,l),
(342,0,l)
);
},
{
closed = 1;
nodes = (
(445,452,l),
(269,500,l),
(230,354,l),
(406,306,l)
);
}
);
width = 465;
}
);
unicode = 118;
},
{
glyphname = w;
layers = (
{
anchors = (
{
name = bottom;
pos = (322,0);
},
{
name = top;
pos = (322,550);
}
);
layerId = "3DD6C797-E5ED-486C-89DE-75EDF9B2F8B8";
shapes = (
{
closed = 1;
nodes = (
(640,146,l),
(688,91,l),
(269,206,l),
(230,60,l),
(649,-55,l),
(577,-86,l)
);
},
{
closed = 1;
nodes = (
(414,107,l),
(54,206,l),
(15,60,l),
(375,-39,l)
);
},
{
closed = 1;
nodes = (
(199,104,l),
(199,411,l),
(48,411,l),
(48,104,l)
);
},
{
closed = 1;
nodes = (
(232,491,l),
(273,436,l),
(54,496,l),
(15,350,l),
(234,290,l),
(169,259,l)
);
},
{
closed = 1;
nodes = (
(414,104,l),
(414,411,l),
(263,411,l),
(263,104,l)
);
},
{
closed = 1;
nodes = (
(447,491,l),
(488,436,l),
(269,496,l),
(230,350,l),
(449,290,l),
(384,259,l)
);
},
{
closed = 1;
nodes = (
(629,107,l),
(629,299,l),
(478,299,l),
(478,107,l)
);
},
{
closed = 1;
nodes = (
(629,299,l),
(571,642,l),
(652,486,l),
(416,442,l),
(421,615,l),
(481,274,l)
);
}
);
width = 644;
}
);
unicode = 119;
},
{
glyphname = x;
layers = (
{
layerId = "3DD6C797-E5ED-486C-89DE-75EDF9B2F8B8";
shapes = (
{
closed = 1;
nodes = (
(516,107,l),
(516,98,l),
(151,512,l),
(185,520,l),
(4,361,l),
(21,430,l),
(415,-16,l),
(354,-44,l)
);
},
{
closed = 1;
nodes = (
(578,82,l),
(566,22,l),
(463,241,l),
(513,219,l),
(266,105,l),
(309,200,l),
(409,-18,l),
(330,-32,l)
);
},
{
closed = 1;
nodes = (
(50,281,l),
(297,395,l),
(254,300,l),
(154,518,l),
(233,532,l),
(-15,418,l),
(-3,478,l),
(100,259,l)
);
},
{
closed = 1;
nodes = (
(145,-16,l),
(539,430,l),
(556,361,l),
(375,520,l),
(409,512,l),
(44,98,l),
(44,107,l),
(206,-44,l)
);
},
{
closed = 1;
nodes = (
(151,-18,l),
(251,200,l),
(294,105,l),
(47,219,l),
(97,241,l),
(-6,22,l),
(-18,82,l),
(230,-32,l)
);
},
{
closed = 1;
nodes = (
(563,478,l),
(575,418,l),
(327,532,l),
(406,518,l),
(306,300,l),
(263,395,l),
(510,281,l),
(460,259,l)
);
}
);
width = 560;
}
);
unicode = 120;
},
{
glyphname = y;
layers = (
{
anchors = (
{
name = bottom;
pos = (230,-288);
},
{
name = top;
pos = (230,550);
}
);
layerId = "3DD6C797-E5ED-486C-89DE-75EDF9B2F8B8";
shapes = (
{
closed = 1;
nodes = (
(423,-53,l),
(466,-100,l),
(38,11,l),
(114,44,l),
(54,-189,l),
(1,-133,l),
(475,-262,l),
(363,-288,l)
);
},
{
closed = 1;
nodes = (
(281,177,l),
(355,122,l),
(-97,239,l),
(62,239,l),
(2,6,l),
(-116,91,l),
(316,-26,l),
(221,-58,l)
);
},
{
closed = 1;
nodes = (
(199,92,l),
(199,415,l),
(48,415,l),
(48,92,l)
);
},
{
closed = 1;
nodes = (
(414,-87,l),
(414,360,l),
(263,360,l),
(263,-87,l)
);
},
{
closed = 1;
nodes = (
(230,452,l),
(54,500,l),
(15,354,l),
(191,306,l)
);
},
{
closed = 1;
nodes = (
(445,452,l),
(269,500,l),
(230,354,l),
(406,306,l)
);
}
);
width = 460;
}
);
unicode = 121;
},
{
glyphname = z;
layers = (
{
anchors = (
{
name = bottom;
pos = (237,0);
},
{
name = center;
pos = (237,250);
},
{
name = top;
pos = (237,550);
}
);
layerId = "3DD6C797-E5ED-486C-89DE-75EDF9B2F8B8";
shapes = (
{
closed = 1;
nodes = (
(191,96,l),
(511,446,l),
(434,254,l),
(255,415,l),
(398,546,l),
(46,161,l),
(49,174,l),
(209,21,l)
);
},
{
closed = 1;
nodes = (
(427,147,l),
(54,169,l),
(46,18,l),
(419,-4,l)
);
},
{
closed = 1;
nodes = (
(468,177,l),
(530,122,l),
(311,182,l),
(272,36,l),
(491,-24,l),
(405,-55,l)
);
},
{
closed = 1;
nodes = (
(211,495,l),
(273,440,l),
(54,500,l),
(15,354,l),
(234,294,l),
(148,263,l)
);
},
{
closed = 1;
nodes = (
(427,478,l),
(54,500,l),
(46,349,l),
(419,327,l)
);
}
);
width = 473;
}
);
unicode = 122;
},
{
glyphname = "hamza-ar";
layers = (
{
anchors = (
{
name = bottom;
pos = (224,-50);
},
{
name = top;
pos = (224,500);
}
);
layerId = "3DD6C797-E5ED-486C-89DE-75EDF9B2F8B8";
shapes = (
{
closed = 1;
nodes = (
(-135,0,l),
(480,0,l),
(441,-51,l),
(400,187,l),
(463,151,l),
(-152,151,l),
(10,196,l),
(51,-43,l)
);
},
{
closed = 1;
nodes = (
(306,56,l),
(384,185,l),
(130,333,l),
(324,279,l),
(398,416,l),
(177,477,l),
(15,226,l)
);
}
);
width = 447;
}
);
unicode = 1569;
},
{
glyphname = "alef-ar";
layers = (
{
anchors = (
{
name = bottom;
pos = (112,-40);
},
{
name = top;
pos = (56,669);
}
);
layerId = "3DD6C797-E5ED-486C-89DE-75EDF9B2F8B8";
shapes = (
{
closed = 1;
nodes = (
(179,39,l),
(179,620,l),
(28,620,l),
(28,-3,l)
);
},
{
closed = 1;
nodes = (
(204,528,l),
(165,674,l),
(-11,626,l),
(28,480,l)
);
}
);
width = 219;
}
);
unicode = 1575;
},
{
glyphname = "alef-ar.fina";
layers = (
{
anchors = (
{
name = bottom;
pos = (120,-40);
},
{
name = top;
pos = (78,615);
}
);
layerId = "3DD6C797-E5ED-486C-89DE-75EDF9B2F8B8";
shapes = (
{
closed = 1;
nodes = (
(187,86,l),
(187,620,l),
(36,579,l),
(36,86,l)
);
},
{
closed = 1;
nodes = (
(-20,-15,l),
(214,49,l),
(175,195,l),
(-59,131,l),
(-2,194,l),
(61,-38,l)
);
}
);
width = 187;
}
);
unicode = 65166;
},
{
glyphname = "alef-ar.short";
layers = (
{
anchors = (
{
name = bottom;
pos = (112,-50);
},
{
name = top;
pos = (59,584);
}
);
layerId = "3DD6C797-E5ED-486C-89DE-75EDF9B2F8B8";
shapes = (
{
closed = 1;
nodes = (
(179,39,l),
(179,535,l),
(28,535,l),
(28,-3,l)
);
},
{
closed = 1;
nodes = (
(204,443,l),
(165,589,l),
(-11,541,l),
(28,395,l)
);
}
);
width = 224;
}
);
},
{
glyphname = "alef-ar.fina.short";
layers = (
{
anchors = (
{
name = bottom;
pos = (120,-50);
},
{
name = top;
pos = (95,583);
}
);
layerId = "3DD6C797-E5ED-486C-89DE-75EDF9B2F8B8";
shapes = (
{
closed = 1;
nodes = (
(187,86,l),
(187,595,l),
(36,554,l),
(36,86,l)
);
},
{
closed = 1;
nodes = (
(-20,-15,l),
(214,49,l),
(175,195,l),
(-59,131,l),
(-2,194,l),
(61,-38,l)
);
}
);
width = 187;
}
);
},
{
glyphname = "behDotless-ar";
layers = (
{
anchors = (
{
name = bottom;
pos = (568,-13);
},
{
name = ring;
pos = (565,0);
},
{
name = top;
pos = (208,283);
}
);
layerId = "3DD6C797-E5ED-486C-89DE-75EDF9B2F8B8";
shapes = (
{
closed = 1;
nodes = (
(152,-3,l),
(701,49,l),
(657,-6,l),
(635,234,l),
(669,197,l),
(139,148,l),
(169,199,l),
(191,-41,l)
);
},
{
closed = 1;
nodes = (
(240,206,l),
(334,119,l),
(53,192,l),
(15,47,l),
(295,-29,l),
(180,-29,l)
);
},
{
closed = 1;
nodes = (
(648,86,l),
(648,392,l),
(497,351,l),
(497,86,l)
);
}
);
width = 667;
}
);
unicode = 1646;
},
{
glyphname = "behDotless-ar.medi";
layers = (
{
anchors = (
{
name = bottom;
pos = (115,-13);
},
{
name = ring;
pos = (114,0);
},
{
name = top;
pos = (110,404);
}
);
layerId = "3DD6C797-E5ED-486C-89DE-75EDF9B2F8B8";
shapes = (
{
closed = 1;
nodes = (
(-10,-15,l),
(224,49,l),
(185,195,l),
(-49,131,l),
(-34,186,l),
(29,-46,l)
);
},
{
closed = 1;
nodes = (
(197,86,l),
(197,392,l),
(46,351,l),
(46,86,l)
);
}
);
width = 197;
}
);
},
{
glyphname = "behDotless-ar.init";
layers = (
{
anchors = (
{
name = bottom;
pos = (121,-13);
},
{
name = ring;
pos = (115,0);
},
{
name = top;
pos = (111,404);
}
);
layerId = "3DD6C797-E5ED-486C-89DE-75EDF9B2F8B8";
shapes = (
{
closed = 1;
nodes = (
(198,82,l),
(198,392,l),
(47,351,l),
(47,82,l)
);
},
{
closed = 1;
nodes = (
(209,45,l),
(170,191,l),
(-21,139,l),
(18,-7,l)
);
}
);
width = 224;
}
);
},
{
glyphname = "hah-ar";
layers = (
{
anchors = (
{
name = bottom;
pos = (304,-234);
},
{
name = center;
pos = (426,-56);
},
{
name = top;
pos = (441,386);
}
);
layerId = "3DD6C797-E5ED-486C-89DE-75EDF9B2F8B8";
shapes = (
{
closed = 1;
nodes = (
(-35,-4,l),
(578,54,l),
(568,5,l),
(505,239,l),
(546,202,l),
(-66,145,l),
(4,195,l),
(67,-39,l)
);
},
{
closed = 1;
nodes = (
(106,-175,l),
(306,-38,l),
(345,-147,l),
(178,91,l),
(55,5,l),
(220,-234,l)
);
},
{
closed = 1;
nodes = (
(533,385,l),
(545,334,l),
(64,379,l),
(112,418,l),
(90,179,l),
(62,228,l),
(532,183,l),
(511,145,l)
);
}
);
width = 570;
}
);
unicode = 1581;
},
{
glyphname = "hah-ar.init";
layers = (
{
anchors = (
{
name = bottom;
pos = (383,0);
},
{
name = top;
pos = (392,386);
}
);
layerId = "3DD6C797-E5ED-486C-89DE-75EDF9B2F8B8";
shapes = (
{
closed = 1;
nodes = (
(-62,-8,l),
(551,50,l),
(526,1,l),
(463,235,l),
(519,198,l),
(-93,141,l),
(-32,190,l),
(30,-43,l)
);
},
{
closed = 1;
nodes = (
(491,381,l),
(503,330,l),
(22,375,l),
(70,414,l),
(48,175,l),
(20,224,l),
(490,179,l),
(469,141,l)
);
}
);
width = 529;
}
);
unicode = 65187;
},
{
glyphname = "dal-ar";
layers = (
{
anchors = (
{
name = bottom;
pos = (186,-50);
},
{
name = top;
pos = (264,386);
}
);
layerId = "3DD6C797-E5ED-486C-89DE-75EDF9B2F8B8";
shapes = (
{
closed = 1;
nodes = (
(-148,-3,l),
(401,49,l),
(357,-6,l),
(335,234,l),
(369,197,l),
(-161,148,l),
(17,199,l),
(39,-41,l)
);
},
{
closed = 1;
nodes = (
(348,86,l),
(348,392,l),
(197,351,l),
(197,86,l)
);
}
);
width = 372;
}
);
unicode = 1583;
},
{
glyphname = "reh-ar";
layers = (
{
anchors = (
{
name = bottom;
pos = (69,-220);
},
{
name = top;
pos = (79,404);
}
);
layerId = "3DD6C797-E5ED-486C-89DE-75EDF9B2F8B8";
shapes = (
{
closed = 1;
nodes = (
(166,-146,l),
(166,392,l),
(15,351,l),
(15,-187,l)
);
}
);
width = 181;
}
);
unicode = 1585;
},
{
glyphname = "seen-ar";
layers = (
{
anchors = (
{
name = bottom;
pos = (716,-60);
},
{
name = top;
pos = (603,380);
}
);
layerId = "3DD6C797-E5ED-486C-89DE-75EDF9B2F8B8";
shapes = (
{
closed = 1;
nodes = (
(137,-136,l),
(686,-84,l),
(506,-139,l),
(484,101,l),
(654,64,l),
(124,15,l),
(174,66,l),
(196,-174,l)
);
},
{
closed = 1;
nodes = (
(245,75,l),
(339,-12,l),
(58,61,l),
(20,-84,l),
(300,-160,l),
(185,-160,l)
);
},
{
closed = 1;
nodes = (
(500,50,l),
(497,64,l),
(485,63,l),
(478,48,l)
);
},
{
closed = 1;
nodes = (
(489,11,l),
(489,292,l),
(338,251,l),
(338,11,l)
);
},
{
closed = 1;
nodes = (
(697,49,l),
(658,195,l),
(467,143,l),
(506,-3,l)
);
},
{
closed = 1;
nodes = (
(686,86,l),
(686,342,l),
(535,301,l),
(535,86,l)
);
},
{
closed = 1;
nodes = (
(894,49,l),
(855,195,l),
(664,143,l),
(703,-3,l)
);
},
{
closed = 1;
nodes = (
(883,86,l),
(883,392,l),
(732,351,l),
(732,86,l)
);
}
);
width = 914;
}
);
unicode = 1587;
},
{
glyphname = "seen-ar.init";
layers = (
{
anchors = (
{
name = bottom;
pos = (311,-60);
},
{
name = top;
pos = (311,380);
}
);
layerId = "3DD6C797-E5ED-486C-89DE-75EDF9B2F8B8";
shapes = (
{
closed = 1;
nodes = (
(591,86,l),
(591,392,l),
(440,351,l),
(440,86,l)
);
},
{
closed = 1;
nodes = (
(208,49,l),
(169,195,l),
(-22,143,l),
(17,-3,l)
);
},
{
closed = 1;
nodes = (
(197,86,l),
(197,292,l),
(46,251,l),
(46,86,l)
);
},
{
closed = 1;
nodes = (
(405,49,l),
(366,195,l),
(175,143,l),
(214,-3,l)
);
},
{
closed = 1;
nodes = (
(394,86,l),
(394,342,l),
(243,301,l),
(243,86,l)
);
},
{
closed = 1;
nodes = (
(602,49,l),
(563,195,l),
(372,143,l),
(411,-3,l)
);
}
);
width = 622;
}
);
unicode = 65203;
},
{
glyphname = "sad-ar";
layers = (
{
anchors = (
{
name = bottom;
pos = (898,0);
},
{
name = top;
pos = (812,386);
}
);
layerId = "3DD6C797-E5ED-486C-89DE-75EDF9B2F8B8";
shapes = (
{
closed = 1;
nodes = (
(285,-18,l),
(1049,54,l),
(1034,5,l),
(971,239,l),
(1017,202,l),
(270,132,l),
(462,162,l),
(513,-31,l)
);
},
{
closed = 1;
nodes = (
(240,75,l),
(334,-12,l),
(53,61,l),
(15,-84,l),
(295,-160,l),
(180,-160,l)
);
},
{
closed = 1;
nodes = (
(132,-136,l),
(681,-84,l),
(501,-139,l),
(479,101,l),
(649,64,l),
(119,15,l),
(169,66,l),
(191,-174,l)
);
},
{
closed = 1;
nodes = (
(495,50,l),
(495,81,l),
(472,83,l),
(473,48,l)
);
},
{
closed = 1;
nodes = (
(484,26,l),
(484,332,l),
(333,291,l),
(333,26,l)
);
},
{
closed = 1;
nodes = (
(672,86,l),
(672,274,l),
(521,229,l),
(521,86,l)
);
},
{
closed = 1;
nodes = (
(999,385,l),
(1011,334,l),
(530,379,l),
(538,418,l),
(516,179,l),
(498,231,l),
(998,183,l),
(977,145,l)
);
}
);
width = 1037;
}
);
unicode = 1589;
},
{
glyphname = "sad-ar.init";
layers = (
{
anchors = (
{
name = bottom;
pos = (609,0);
},
{
name = top;
pos = (523,386);
}
);
layerId = "3DD6C797-E5ED-486C-89DE-75EDF9B2F8B8";
shapes = (
{
closed = 1;
nodes = (
(-9,-18,l),
(755,54,l),
(745,5,l),
(682,239,l),
(723,202,l),
(-24,132,l),
(-23,139,l),
(22,-31,l)
);
},
{
closed = 1;
nodes = (
(195,86,l),
(195,332,l),
(44,291,l),
(44,86,l)
);
},
{
closed = 1;
nodes = (
(383,86,l),
(383,274,l),
(232,229,l),
(232,86,l)
);
},
{
closed = 1;
nodes = (
(710,385,l),
(722,334,l),
(241,379,l),
(249,418,l),
(227,179,l),
(209,231,l),
(709,183,l),
(688,145,l)
);
}
);
width = 747;
}
);
unicode = 65211;
},
{
glyphname = "tah-ar";
layers = (
{
anchors = (
{
name = bottom;
pos = (609,0);
},
{
name = top;
pos = (523,386);
}
);
layerId = "3DD6C797-E5ED-486C-89DE-75EDF9B2F8B8";
shapes = (
{
closed = 1;
nodes = (
(-9,-18,l),
(755,54,l),
(754,-3,l),
(690,239,l),
(728,202,l),
(-24,132,l),
(-2,200,l),
(60,-33,l)
);
},
{
closed = 1;
nodes = (
(232,39,l),
(232,620,l),
(81,620,l),
(81,-3,l)
);
},
{
closed = 1;
nodes = (
(257,528,l),
(218,674,l),
(42,626,l),
(81,480,l)
);
},
{
closed = 1;
nodes = (
(717,385,l),
(722,334,l),
(191,384,l),
(242,418,l),
(220,179,l),
(209,231,l),
(709,183,l),
(695,145,l)
);
}
);
width = 754;
}
);
unicode = 1591;
},
{
glyphname = "ain-ar";
layers = (
{
anchors = (
{
name = bottom;
pos = (300,-200);
},
{
name = top;
pos = (297,516);
}
);
layerId = "3DD6C797-E5ED-486C-89DE-75EDF9B2F8B8";
shapes = (
{
closed = 1;
nodes = (
(-35,-4,l),
(578,54,l),
(568,5,l),
(505,239,l),
(546,202,l),
(-66,145,l),
(4,195,l),
(67,-39,l)
);
},
{
closed = 1;
nodes = (
(106,-175,l),
(306,-38,l),
(345,-147,l),
(178,91,l),
(55,5,l),
(220,-234,l)
);
},
{
closed = 1;
nodes = (
(400,93,l),
(465,229,l),
(198,353,l),
(440,309,l),
(500,453,l),
(231,500,l),
(73,194,l),
(37,260,l)
);
}
);
width = 570;
}
);
unicode = 1593;
},
{
glyphname = "ain-ar.fina";
layers = (
{
anchors = (
{
name = bottom;
pos = (289,-200);
},
{
name = top;
pos = (297,516);
}
);
layerId = "3DD6C797-E5ED-486C-89DE-75EDF9B2F8B8";
shapes = (
{
closed = 1;
nodes = (
(106,-175,l),
(306,-38,l),
(345,-147,l),
(178,91,l),
(55,5,l),
(220,-234,l)
);
},
{
closed = 1;
nodes = (
(-35,-4,l),
(578,54,l),
(568,5,l),
(505,239,l),
(546,202,l),
(-66,145,l),
(4,195,l),
(67,-39,l)
);
},
{
closed = 1;
nodes = (
(546,348,l),
(549,264,l),
(329,365,l),
(409,412,l),
(305,192,l),
(442,129,l)
);
},
{
closed = 1;
nodes = (
(420,84,l),
(484,219,l),
(197,353,l),
(440,309,l),
(500,453,l),
(231,500,l),
(73,194,l),
(37,260,l)
);
}
);
width = 524;
}
);
unicode = 65226;
},
{
glyphname = "ain-ar.medi";
layers = (
{
anchors = (
{
name = bottom;
pos = (233,-50);
},
{
name = top;
pos = (240,516);
}
);
layerId = "3DD6C797-E5ED-486C-89DE-75EDF9B2F8B8";
shapes = (
{
closed = 1;
nodes = (
(-92,-4,l),
(521,54,l),
(521,5,l),
(458,239,l),
(489,202,l),
(-123,145,l),
(-34,201,l),
(30,-35,l)
);
},
{
closed = 1;
nodes = (
(489,348,l),
(492,264,l),
(272,365,l),
(352,412,l),
(248,192,l),
(385,129,l)
);
},
{
closed = 1;
nodes = (
(363,84,l),
(427,219,l),
(360,250,l),
(358,249,l),
(359,251,l),
(140,353,l),
(383,309,l),
(443,453,l),
(174,500,l),
(16,194,l),
(-20,260,l)
);
}
);
width = 457;
}
);
unicode = 65228;
},
{
glyphname = "ain-ar.init";
layers = (
{
anchors = (
{
name = bottom;
pos = (273,-50);
},
{
name = top;
pos = (270,516);
}
);
layerId = "3DD6C797-E5ED-486C-89DE-75EDF9B2F8B8";
shapes = (
{
closed = 1;
nodes = (
(-62,-4,l),
(551,54,l),
(516,-1,l),
(453,233,l),
(519,202,l),
(-93,145,l),
(-33,195,l),
(30,-39,l)
);
},
{
closed = 1;
nodes = (
(373,93,l),
(438,229,l),
(171,353,l),
(413,309,l),
(473,453,l),
(204,500,l),
(46,194,l),
(10,260,l)
);
}
);
width = 517;
}
);
unicode = 65227;
},
{
glyphname = "fehDotless-ar";
layers = (
{
anchors = (
{
name = bottom;
pos = (472,-50);
},
{
name = top;
pos = (560,441);
}
);
layerId = "3DD6C797-E5ED-486C-89DE-75EDF9B2F8B8";
shapes = (
{
closed = 1;
nodes = (
(157,-3,l),
(706,49,l),
(662,-6,l),
(640,234,l),
(674,197,l),
(144,148,l),
(174,199,l),
(196,-41,l)
);
},
{
closed = 1;
nodes = (
(245,206,l),
(339,119,l),
(58,192,l),
(20,47,l),
(300,-29,l),
(185,-29,l)
);
},
{
closed = 1;
nodes = (
(444,93,l),
(444,302,l),
(293,302,l),
(293,93,l)
);
},
{
closed = 1;
nodes = (
(653,61,l),
(653,348,l),
(502,348,l),
(502,61,l)
);
},
{
closed = 1;
nodes = (
(675,387,l),
(756,332,l),
(290,460,l),
(390,490,l),
(327,258,l),
(262,311,l),
(717,186,l),
(612,155,l)
);
}
);
width = 677;
}
);
unicode = 1697;
},
{
glyphname = "fehDotless-ar.init";
layers = (
{
anchors = (
{
name = bottom;
pos = (225,-50);
},
{
name = top;
pos = (313,434);
}
);
layerId = "3DD6C797-E5ED-486C-89DE-75EDF9B2F8B8";
shapes = (
{
closed = 1;
nodes = (
(-90,-10,l),
(459,42,l),
(430,-5,l),
(367,227,l),
(427,190,l),
(-103,141,l),
(-35,181,l),
(28,-51,l)
);
},
{
closed = 1;
nodes = (
(197,86,l),
(197,295,l),
(46,295,l),
(46,86,l)
);
},
{
closed = 1;
nodes = (
(406,54,l),
(406,341,l),
(255,341,l),
(255,54,l)
);
},
{
closed = 1;
nodes = (
(428,380,l),
(509,325,l),
(43,453,l),
(143,483,l),
(80,251,l),
(15,304,l),
(470,179,l),
(365,148,l)
);
}
);
width = 435;
}
);
},
{
glyphname = "qafDotless-ar";
layers = (
{
anchors = (
{
name = bottom;
pos = (257,-200);
},
{
name = top;
pos = (391,441);
}
);
layerId = "3DD6C797-E5ED-486C-89DE-75EDF9B2F8B8";
shapes = (
{
closed = 1;
nodes = (
(506,387,l),
(587,332,l),
(121,460,l),
(221,490,l),
(158,258,l),
(93,311,l),
(548,186,l),
(443,155,l)
);
},
{
closed = 1;
nodes = (
(240,75,l),
(334,-12,l),
(53,61,l),
(15,-84,l),
(295,-160,l),
(180,-160,l)
);
},
{
closed = 1;
nodes = (
(359,178,l),
(433,122,l),
(154,200,l),
(101,12,l),
(71,108,l),
(392,15,l),
(295,-56,l)
);
},
{
closed = 1;
nodes = (
(132,-136,l),
(681,-84,l),
(501,-139,l),
(479,101,l),
(649,64,l),
(119,15,l),
(169,66,l),
(191,-174,l)
);
},
{
closed = 1;
nodes = (
(275,93,l),
(275,302,l),
(124,302,l),
(124,93,l)
);
},
{
closed = 1;
nodes = (
(484,26,l),
(484,348,l),
(333,348,l),
(333,26,l)
);
}
);
width = 513;
}
);
unicode = 1647;
},
{
glyphname = "kafDotless-ar";
layers = (
{
anchors = (
{
name = bottom;
pos = (577,-50);
},
{
name = top;
pos = (208,233);
}
);
layerId = "3DD6C797-E5ED-486C-89DE-75EDF9B2F8B8";
shapes = (
{
closed = 1;
nodes = (
(152,-3,l),
(701,49,l),
(657,-6,l),
(635,234,l),
(669,197,l),
(139,148,l),
(169,199,l),
(191,-41,l)
);
},
{
closed = 1;
nodes = (
(240,206,l),
(334,119,l),
(53,192,l),
(15,47,l),
(295,-29,l),
(180,-29,l)
);
},
{
closed = 1;
nodes = (
(648,86,l),
(648,620,l),
(497,579,l),
(497,86,l)
);
}
);
width = 667;
}
);
},
{
glyphname = "kaf-ar.init";
layers = (
{
anchors = (
{
name = bottom;
pos = (263,-50);
},
{
name = top;
pos = (110,548);
}
);
layerId = "3DD6C797-E5ED-486C-89DE-75EDF9B2F8B8";
shapes = (
{
closed = 1;
nodes = (
(-62,-8,l),
(551,50,l),
(538,1,l),
(475,235,l),
(519,198,l),
(-93,141,l),
(-32,190,l),
(30,-43,l)
);
},
{
closed = 1;
nodes = (
(503,381,l),
(525,330,l),
(-6,380,l),
(67,415,l),
(45,175,l),
(12,227,l),
(512,179,l),
(481,141,l)
);
},
{
closed = 1;
nodes = (
(1,344,l),
(526,418,l),
(449,367,l),
(406,604,l),
(531,550,l),
(6,476,l),
(18,529,l),
(60,293,l)
);
},
{
closed = 1;
nodes = (
(442,406,l),
(395,668,l),
(456,569,l),
(184,531,l),
(213,642,l),
(259,386,l)
);
}
);
width = 550;
}
);
unicode = 65243;
},
{
glyphname = "keheh-ar";
layers = (
{
anchors = (
{
name = bottom;
pos = (457,-50);
},
{
name = top;
pos = (278,548);
}
);
layerId = "3DD6C797-E5ED-486C-89DE-75EDF9B2F8B8";
shapes = (
{
closed = 1;
nodes = (
(240,206,l),
(334,119,l),
(53,192,l),
(15,47,l),
(295,-29,l),
(180,-29,l)
);
},
{
pos = (168,0);
ref = "kaf-ar.init";
}
);
width = 708;
}
);
unicode = 1705;
},
{
glyphname = "gaf-ar.medi";
layers = (
{
anchors = (
{
name = bottom;
pos = (275,-50);
},
{
name = top;
pos = (162,626);
}
);
layerId = "3DD6C797-E5ED-486C-89DE-75EDF9B2F8B8";
shapes = (
{
closed = 1;
nodes = (
(2,548,l),
(226,580,l),
(213,551,l),
(201,620,l),
(222,598,l),
(7,568,l),
(13,587,l),
(22,534,l)
);
},
{
ref = "keheh-ar.medi";
}
);
width = 497;
}
);
unicode = 64405;
},
{
glyphname = "lam-ar";
layers = (
{
anchors = (
{
name = bottom;
pos = (398,-184);
},
{
name = top;
pos = (380,700);
}
);
layerId = "3DD6C797-E5ED-486C-89DE-75EDF9B2F8B8";
shapes = (
{
closed = 1;
nodes = (
(469,-5,l),
(469,620,l),
(318,579,l),
(318,-5,l)
);
},
{
closed = 1;
nodes = (
(245,75,l),
(339,-12,l),
(58,61,l),
(20,-84,l),
(300,-160,l),
(185,-160,l)
);
},
{
closed = 1;
nodes = (
(137,-136,l),
(686,-84,l),
(486,-139,l),
(464,101,l),
(654,64,l),
(124,15,l),
(174,66,l),
(196,-174,l)
);
},
{
closed = 1;
nodes = (
(494,528,l),
(455,674,l),
(279,626,l),
(318,480,l)
);
}
);
width = 514;
}
);
unicode = 1604;
},
{
glyphname = "lam-ar.init";
layers = (
{
anchors = (
{
name = bottom;
pos = (126,-50);
},
{
name = ring;
pos = (114,0);
},
{
name = top;
pos = (108,667);
}
);
layerId = "3DD6C797-E5ED-486C-89DE-75EDF9B2F8B8";
shapes = (
{
closed = 1;
nodes = (
(197,82,l),
(197,620,l),
(46,579,l),
(46,82,l)
);
},
{
closed = 1;
nodes = (
(208,45,l),
(169,191,l),
(-22,139,l),
(17,-7,l)
);
}
);
width = 228;
}
);
unicode = 65247;
},
{
glyphname = "meem-ar";
layers = (
{
anchors = (
{
name = bottom;
pos = (349,-136);
},
{
name = top;
pos = (214,480);
}
);
layerId = "3DD6C797-E5ED-486C-89DE-75EDF9B2F8B8";
shapes = (
{
closed = 1;
nodes = (
(166,-146,l),
(166,174,l),
(15,133,l),
(15,-187,l)
);
},
{
pos = (46,0);
ref = "meem-ar.init";
}
);
width = 465;
}
);
unicode = 1605;
},
{
glyphname = "meem-ar.init";
layers = (
{
anchors = (
{
name = bottom;
pos = (210,-50);
},
{
name = top;
pos = (210,480);
}
);
layerId = "3DD6C797-E5ED-486C-89DE-75EDF9B2F8B8";
shapes = (
{
closed = 1;
nodes = (
(364,312,l),
(352,256,l),
(293,490,l),
(328,457,l),
(-57,357,l),
(23,412,l),
(83,177,l),
(-18,209,l)
);
},
{
closed = 1;
nodes = (
(404,45,l),
(365,191,l),
(174,139,l),
(213,-7,l)
);
},
{
closed = 1;
nodes = (
(393,328,l),
(242,328,l),
(242,82,l),
(393,82,l)
);
},
{
closed = 1;
nodes = (
(223,45,l),
(184,191,l),
(-50,127,l),
(-34,182,l),
(29,-50,l),
(-11,-19,l)
);
},
{
closed = 1;
nodes = (
(196,328,l),
(45,328,l),
(45,82,l),
(196,82,l)
);
}
);
width = 419;
}
);
unicode = 65251;
},
{
glyphname = "noonghunna-ar";
layers = (
{
anchors = (
{
name = bottom;
pos = (398,-184);
},
{
name = top;
pos = (154,223);
}
);
layerId = "3DD6C797-E5ED-486C-89DE-75EDF9B2F8B8";
shapes = (
{
closed = 1;
nodes = (
(469,-12,l),
(469,392,l),
(318,351,l),
(318,-12,l)
);
},
{
closed = 1;
nodes = (
(245,75,l),
(339,-12,l),
(58,61,l),
(20,-84,l),
(300,-160,l),
(185,-160,l)
);
},
{
closed = 1;
nodes = (
(137,-136,l),
(686,-84,l),
(486,-139,l),
(464,101,l),
(654,64,l),
(124,15,l),
(174,66,l),
(196,-174,l)
);
}
);
width = 503;
}
);
unicode = 1722;
},
{
glyphname = "heh-ar";
layers = (
{
anchors = (
{
name = bottom;
pos = (212,-50);
},
{
name = top;
pos = (201,448);
}
);
layerId = "3DD6C797-E5ED-486C-89DE-75EDF9B2F8B8";
shapes = (
{
closed = 1;
nodes = (
(-11,-33,l),
(408,82,l),
(369,228,l),
(-50,113,l),
(5,168,l),
(68,-64,l)
);
},
{
closed = 1;
nodes = (
(375,396,l),
(224,354,l),
(224,126,l),
(375,126,l)
);
},
{
closed = 1;
nodes = (
(166,225,l),
(15,225,l),
(15,130,l),
(166,130,l)
);
},
{
closed = 1;
nodes = (
(338,422,l),
(295,271,l),
(98,410,l),
(213,511,l),
(15,225,l),
(139,140,l)
);
},
{
closed = 1;
nodes = (
(400,304,l),
(361,450,l),
(185,402,l),
(224,256,l)
);
}
);
width = 423;
}
);
unicode = 1607;
},
{
glyphname = "heh-ar.fina";
layers = (
{
anchors = (
{
name = bottom;
pos = (204,-50);
},
{
name = top;
pos = (234,448);
}
);
layerId = "3DD6C797-E5ED-486C-89DE-75EDF9B2F8B8";
shapes = (
{
closed = 1;
nodes = (
(-11,-33,l),
(408,82,l),
(369,228,l),
(-50,113,l),
(5,168,l),
(68,-64,l)
);
},
{
closed = 1;
nodes = (
(166,225,l),
(15,225,l),
(15,130,l),
(166,130,l)
);
},
{
closed = 1;
nodes = (
(338,422,l),
(295,271,l),
(98,410,l),
(213,511,l),
(15,225,l),
(139,140,l)
);
},
{
closed = 1;
nodes = (
(201,-15,l),
(435,49,l),
(396,195,l),
(162,131,l),
(219,194,l),
(282,-38,l)
);
},
{
closed = 1;
nodes = (
(408,396,l),
(257,354,l),
(257,126,l),
(408,126,l)
);
},
{
closed = 1;
nodes = (
(433,304,l),
(394,450,l),
(218,402,l),
(257,256,l)
);
}
);
width = 408;
}
);
unicode = 65258;
},
{
glyphname = "heh-ar.medi";
layers = (
{
anchors = (
{
name = bottom;
pos = (203,-289);
},
{
name = top;
pos = (203,433);
}
);
layerId = "3DD6C797-E5ED-486C-89DE-75EDF9B2F8B8";
shapes = (
{
closed = 1;
nodes = (
(44,-160,l),
(195,-205,l),
(195,37,l),
(44,37,l)
);
},
{
closed = 1;
nodes = (
(253,-33,l),
(404,-33,l),
(404,73,l),
(253,73,l)
);
},
{
closed = 1;
nodes = (
(81,-230,l),
(124,-74,l),
(321,-213,l),
(206,-319,l),
(404,-33,l),
(280,52,l)
);
},
{
closed = 1;
nodes = (
(460,57,l),
(457,2,l),
(394,234,l),
(421,203,l),
(144,127,l),
(141,182,l),
(204,-50,l),
(183,-19,l)
);
},
{
closed = 1;
nodes = (
(279,57,l),
(232,2,l),
(169,234,l),
(240,203,l),
(-37,127,l),
(-35,182,l),
(31,-50,l),
(2,-19,l)
);
},
{
closed = 1;
nodes = (
(195,109,l),
(195,366,l),
(44,306,l),
(44,109,l)
);
},
{
closed = 1;
nodes = (
(404,179,l),
(206,465,l),
(321,359,l),
(124,220,l),
(81,376,l),
(280,94,l)
);
},
{
closed = 1;
nodes = (
(247,170,l),
(310,402,l),
(323,331,l),
(4,419,l),
(79,450,l),
(16,218,l),
(-35,273,l),
(291,183,l)
);
},
{
closed = 1;
nodes = (
(-35,-127,l),
(16,-72,l),
(79,-304,l),
(4,-273,l),
(323,-185,l),
(310,-256,l),
(247,-24,l),
(291,-37,l)
);
}
);
width = 405;
}
);
unicode = 65260;
},
{
glyphname = "heh-ar.init";
layers = (
{
anchors = (
{
name = bottom;
pos = (286,-50);
},
{
name = top;
pos = (286,500);
}
);
layerId = "3DD6C797-E5ED-486C-89DE-75EDF9B2F8B8";
shapes = (
{
closed = 1;
nodes = (
(-22,-21,l),
(437,105,l),
(398,251,l),
(-48,129,l),
(-38,191,l),
(26,-41,l)
);
},
{
closed = 1;
nodes = (
(404,419,l),
(253,377,l),
(253,149,l),
(404,149,l)
);
},
{
closed = 1;
nodes = (
(195,248,l),
(44,248,l),
(44,153,l),
(195,153,l)
);
},
{
closed = 1;
nodes = (
(367,445,l),
(324,294,l),
(127,433,l),
(242,534,l),
(44,248,l),
(168,163,l)
);
},
{
closed = 1;
nodes = (
(429,327,l),
(390,473,l),
(214,425,l),
(253,279,l)
);
},
{
closed = 1;
nodes = (
(227,-10,l),
(623,99,l),
(607,62,l),
(607,294,l),
(622,255,l),
(188,136,l),
(243,191,l),
(306,-41,l)
);
},
{
closed = 1;
nodes = (
(607,251,l),
(409,537,l),
(524,436,l),
(327,297,l),
(284,448,l),
(483,166,l)
);
}
);
width = 622;
}
);
unicode = 65259;
},
{
glyphname = "hehgoal-ar.fina";
layers = (
{
anchors = (
{
name = bottom;
pos = (203,-50);
},
{
name = top;
pos = (228,420);
}
);
layerId = "3DD6C797-E5ED-486C-89DE-75EDF9B2F8B8";
shapes = (
{
closed = 1;
nodes = (
(25,-23,l),
(219,30,l),
(210,9,l),
(152,223,l),
(412,240,l),
(-50,113,l),
(5,168,l),
(61,-37,l)
);
},
{
closed = 1;
nodes = (
(166,213,l),
(15,213,l),
(15,131,l),
(166,131,l)
);
},
{
closed = 1;
nodes = (
(241,274,l),
(241,242,l),
(63,368,l),
(119,365,l),
(15,214,l),
(139,129,l)
);
},
{
closed = 1;
nodes = (
(200,-15,l),
(434,49,l),
(395,195,l),
(161,131,l),
(218,194,l),
(281,-38,l)
);
},
{
closed = 1;
nodes = (
(407,366,l),
(256,324,l),
(256,126,l),
(407,126,l)
);
},
{
closed = 1;
nodes = (
(432,274,l),
(393,420,l),
(87,336,l),
(87,396,l),
(150,164,l),
(106,185,l)
);
}
);
width = 407;
}
);
unicode = 64423;
},
{
glyphname = "hehgoal-ar.medi";
layers = (
{
anchors = (
{
name = bottom;
pos = (203,-289);
},
{
name = top;
pos = (203,433);
}
);
layerId = "3DD6C797-E5ED-486C-89DE-75EDF9B2F8B8";
shapes = (
{
closed = 1;
nodes = (
(44,-160,l),
(195,-205,l),
(195,34,l),
(44,34,l)
);
},
{
closed = 1;
nodes = (
(253,-33,l),
(404,-33,l),
(404,73,l),
(253,73,l)
);
},
{
closed = 1;
nodes = (
(81,-230,l),
(124,-74,l),
(321,-213,l),
(206,-319,l),
(404,-33,l),
(280,52,l)
);
},
{
closed = 1;
nodes = (
(460,57,l),
(457,2,l),
(394,234,l),
(421,203,l),
(144,127,l),
(217,203,l),
(280,-29,l),
(183,-19,l)
);
},
{
closed = 1;
nodes = (
(279,57,l),
(204,2,l),
(141,234,l),
(240,203,l),
(-37,127,l),
(-35,182,l),
(31,-50,l),
(2,-19,l)
);
},
{
closed = 1;
nodes = (
(404,90,l),
(404,199,l),
(253,137,l),
(253,90,l)
);
},
{
closed = 1;
nodes = (
(-35,-127,l),
(16,-72,l),
(79,-304,l),
(4,-273,l),
(323,-185,l),
(310,-256,l),
(247,-24,l),
(291,-37,l)
);
}
);
width = 405;
}
);
unicode = 64425;
},
{
glyphname = "hehgoal-ar.init";
layers = (
{
anchors = (
{
name = bottom;
pos = (112,-200);
},
{
name = top;
pos = (112,500);
}
);
layerId = "3DD6C797-E5ED-486C-89DE-75EDF9B2F8B8";
shapes = (
{
closed = 1;
nodes = (
(82,-11,l),
(82,-141,l),
(71,-127,l),
(157,-150,l),
(146,-159,l),
(146,40,l),
(186,-2,l),
(67,-35,l)
);
},
{
closed = 1;
nodes = (
(101,-60,l),
(82,-130,l),
(205,-164,l),
(165,-170,l),
(187,-91,l),
(221,-107,l),
(86,-70,l)
);
},
{
ref = "behDotless-ar.init";
}
);
width = 224;
}
);
unicode = 64424;
},
{
glyphname = "waw-ar";
layers = (
{
anchors = (
{
name = bottom;
pos = (202,-269);
},
{
name = center;
pos = (202,250);
},
{
name = top;
pos = (238,449);
}
);
layerId = "3DD6C797-E5ED-486C-89DE-75EDF9B2F8B8";
shapes = (
{
closed = 1;
nodes = (
(397,387,l),
(478,332,l),
(12,460,l),
(112,490,l),
(49,258,l),
(-16,311,l),
(439,186,l),
(334,155,l)
);
},
{
closed = 1;
nodes = (
(250,178,l),
(324,122,l),
(45,200,l),
(-8,12,l),
(-38,108,l),
(283,15,l),
(186,-56,l)
);
},
{
closed = 1;
nodes = (
(166,93,l),
(166,302,l),
(15,302,l),
(15,93,l)
);
},
{
closed = 1;
nodes = (
(374,-146,l),
(374,351,l),
(223,351,l),
(223,-187,l)
);
}
);
width = 404;
}
);
unicode = 1608;
},
{
glyphname = "alefMaksura-ar";
layers = (
{
anchors = (
{
name = bottom;
pos = (405,-168);
},
{
name = top;
pos = (107,116);
}
);
layerId = "3DD6C797-E5ED-486C-89DE-75EDF9B2F8B8";
shapes = (
{
closed = 1;
nodes = (
(604,387,l),
(695,332,l),
(229,460,l),
(395,490,l),
(332,258,l),
(201,311,l),
(656,186,l),
(541,155,l)
);
},
{
closed = 1;
nodes = (
(261,69,l),
(334,-12,l),
(53,61,l),
(15,-84,l),
(295,-160,l),
(201,-166,l)
);
},
{
closed = 1;
nodes = (
(454,76,l),
(454,302,l),
(303,302,l),
(303,76,l)
);
},
{
closed = 1;
nodes = (
(592,33,l),
(592,154,l),
(441,154,l),
(441,33,l)
);
},
{
closed = 1;
nodes = (
(602,192,l),
(652,137,l),
(186,265,l),
(362,295,l),
(299,63,l),
(158,116,l),
(613,-9,l),
(539,-40,l)
);
},
{
closed = 1;
nodes = (
(-117,-168,l),
(647,-96,l),
(646,-153,l),
(582,89,l),
(620,52,l),
(-132,-18,l),
(135,138,l),
(233,-229,l)
);
}
);
width = 646;
}
);
unicode = 1609;
},
{
glyphname = "alefMaksura-ar.fina";
layers = (
{
anchors = (
{
name = bottom;
pos = (405,-168);
},
{
name = top;
pos = (107,116);
}
);
layerId = "3DD6C797-E5ED-486C-89DE-75EDF9B2F8B8";
shapes = (
{
closed = 1;
nodes = (
(592,33,l),
(592,154,l),
(441,154,l),
(441,33,l)
);
},
{
closed = 1;
nodes = (
(608,187,l),
(652,137,l),
(186,265,l),
(362,295,l),
(299,63,l),
(158,116,l),
(613,-9,l),
(545,-45,l)
);
},
{
closed = 1;
nodes = (
(261,69,l),
(334,-12,l),
(53,61,l),
(15,-84,l),
(295,-160,l),
(201,-166,l)
);
},
{
closed = 1;
nodes = (
(-117,-168,l),
(647,-96,l),
(646,-153,l),
(582,89,l),
(620,52,l),
(-132,-18,l),
(135,138,l),
(233,-229,l)
);
}
);
width = 588;
}
);
unicode = 65264;
},
{
glyphname = "yehbarree-ar";
layers = (
{
anchors = (
{
name = bottom;
pos = (203,-191);
},
{
name = top;
pos = (122,208);
}
);
layerId = "3DD6C797-E5ED-486C-89DE-75EDF9B2F8B8";
shapes = (
{
closed = 1;
nodes = (
(381,-208,l),
(704,-120,l),
(565,-180,l),
(505,53,l),
(667,21,l),
(342,-64,l),
(417,17,l),
(475,-217,l)
);
},
{
closed = 1;
nodes = (
(541,93,l),
(778,-63,l),
(26,7,l),
(41,50,l),
(98,-167,l),
(-1,-141,l),
(763,-213,l),
(443,-274,l)
);
},
{
closed = 1;
nodes = (
(-26,-8,l),
(597,51,l),
(586,3,l),
(527,226,l),
(555,198,l),
(-57,141,l),
(4,190,l),
(75,-78,l)
);
},
{
closed = 1;
nodes = (
(-41,152,l),
(-8,233,l),
(117,-233,l),
(60,-133,l),
(263,-146,l),
(260,-240,l),
(135,226,l),
(162,139,l)
);
}
);
width = 589;
}
);
unicode = 1746;
},
{
glyphname = "lam_alef-ar";
layers = (
{
anchors = (
{
name = bottom_1;
pos = (488,-50);
},
{
name = bottom_2;
pos = (144,-50);
},
{
name = caret_1;
pos = (299,-50);
},
{
name = top_1;
pos = (445,700);
},
{
name = top_2;
pos = (115,670);
}
);
layerId = "3DD6C797-E5ED-486C-89DE-75EDF9B2F8B8";
shapes = (
{
closed = 1;
nodes = (
(82,-10,l),
(631,42,l),
(588,-13,l),
(566,227,l),
(599,190,l),
(69,141,l),
(169,192,l),
(191,-48,l)
);
},
{
closed = 1;
nodes = (
(240,206,l),
(334,119,l),
(53,192,l),
(15,47,l),
(295,-29,l),
(180,-29,l)
);
},
{
closed = 1;
nodes = (
(130,806,l),
(257,697,l),
(60,558,l),
(-25,763,l),
(522,-5,l),
(413,69,l),
(590,202,l),
(716,-18,l)
);
},
{
closed = 1;
nodes = (
(264,528,l),
(225,674,l),
(49,626,l),
(88,480,l)
);
},
{
closed = 1;
nodes = (
(522,354,l),
(522,674,l),
(371,633,l),
(371,313,l)
);
},
{
closed = 1;
nodes = (
(163,-5,l),
(474,502,l),
(486,385,l),
(281,511,l),
(331,560,l),
(44,89,l),
(63,153,l),
(249,32,l)
);
}
);
width = 598;
}
);
unicode = 65275;
},
{
glyphname = "lam_alef-ar.fina";
layers = (
{
anchors = (
{
name = bottom_1;
pos = (327,-50);
},
{
name = bottom_2;
pos = (118,-50);
},
{
name = caret_1;
pos = (222,0);
},
{
name = top_1;
pos = (309,682);
},
{
name = top_2;
pos = (118,500);
}
);
layerId = "3DD6C797-E5ED-486C-89DE-75EDF9B2F8B8";
shapes = (
{
closed = 1;
nodes = (
(201,86,l),
(201,500,l),
(50,459,l),
(50,86,l)
);
},
{
closed = 1;
nodes = (
(-6,-15,l),
(228,49,l),
(189,195,l),
(-45,131,l),
(2,194,l),
(65,-38,l)
);
},
{
closed = 1;
nodes = (
(398,354,l),
(398,674,l),
(247,633,l),
(247,313,l)
);
},
{
pos = (201,0);
ref = "lam-ar.init";
}
);
width = 398;
}
);
unicode = 65276;
},
{
glyphname = zero;
layers = (
{
layerId = "3DD6C797-E5ED-486C-89DE-75EDF9B2F8B8";
shapes = (
{
closed = 1;
nodes = (
(399,462,l),
(-24,578,l),
(70,608,l),
(7,376,l),
(-52,429,l),
(368,314,l),
(351,232,l)
);
},
{
closed = 1;
nodes = (
(197,424,l),
(46,424,l),
(46,197,l),
(197,150,l)
);
},
{
closed = 1;
nodes = (
(399,106,l),
(399,462,l),
(248,462,l),
(248,106,l)
);
},
{
closed = 1;
nodes = (
(441,173,l),
(441,117,l),
(-25,245,l),
(67,275,l),
(4,43,l),
(-53,96,l),
(407,-30,l),
(381,-52,l)
);
}
);
width = 446;
}
);
unicode = 48;
},
{
glyphname = one;
layers = (
{
layerId = "3DD6C797-E5ED-486C-89DE-75EDF9B2F8B8";
shapes = (
{
closed = 1;
nodes = (
(230,85,l),
(230,482,l),
(79,523,l),
(79,85,l)
);
},
{
closed = 1;
nodes = (
(263,146,l),
(87,194,l),
(48,48,l),
(224,0,l)
);
},
{
closed = 1;
nodes = (
(230,482,l),
(54,530,l),
(15,384,l),
(191,336,l)
);
}
);
width = 278;
}
);
unicode = 49;
},
{
glyphname = two;
layers = (
{
layerId = "3DD6C797-E5ED-486C-89DE-75EDF9B2F8B8";
shapes = (
{
closed = 1;
nodes = (
(510,431,l),
(481,300,l),
(298,455,l),
(387,519,l),
(-21,41,l),
(-11,106,l),
(173,-49,l),
(91,-61,l)
);
},
{
closed = 1;
nodes = (
(456,190,l),
(540,139,l),
(59,184,l),
(208,223,l),
(186,-16,l),
(57,33,l),
(527,-12,l),
(434,-50,l)
);
},
{
closed = 1;
nodes = (
(197,323,l),
(197,377,l),
(46,377,l),
(46,286,l)
);
},
{
closed = 1;
nodes = (
(461,537,l),
(492,486,l),
(11,531,l),
(64,570,l),
(42,331,l),
(9,380,l),
(479,335,l),
(439,297,l)
);
}
);
width = 472;
}
);
unicode = 50;
},
{
glyphname = three;
layers = (
{
layerId = "3DD6C797-E5ED-486C-89DE-75EDF9B2F8B8";
shapes = (
{
closed = 1;
nodes = (
(285,-51,l),
(422,216,l),
(363,243,l),
(438,277,l),
(300,543,l),
(31,496,l),
(91,352,l),
(334,396,l),
(118,296,l),
(183,160,l),
(319,97,l),
(76,141,l),
(5,-26,l),
(-45,8,l)
);
}
);
width = 453;
}
);
unicode = 51;
},
{
glyphname = four;
layers = (
{
layerId = "3DD6C797-E5ED-486C-89DE-75EDF9B2F8B8";
shapes = (
{
closed = 1;
nodes = (
(481,271,l),
(505,216,l),
(-15,265,l),
(33,304,l),
(11,65,l),
(-17,114,l),
(495,65,l),
(459,31,l)
);
},
{
closed = 1;
nodes = (
(190,254,l),
(190,507,l),
(39,544,l),
(39,254,l)
);
},
{
closed = 1;
nodes = (
(402,0,l),
(402,414,l),
(251,414,l),
(251,0,l)
);
}
);
width = 481;
}
);
unicode = 52;
},
{
glyphname = five;
layers = (
{
layerId = "3DD6C797-E5ED-486C-89DE-75EDF9B2F8B8";
shapes = (
{
closed = 1;
nodes = (
(442,280,l),
(478,214,l),
(51,410,l),
(116,426,l),
(13,208,l),
(23,258,l),
(405,81,l),
(337,70,l)
);
},
{
closed = 1;
nodes = (
(366,128,l),
(413,104,l),
(29,174,l),
(101,225,l),
(5,-2,l),
(-45,32,l),
(329,-35,l),
(264,-67,l)
);
},
{
closed = 1;
nodes = (
(120,273,l),
(121,381,l),
(35,381,l),
(34,254,l)
);
},
{
closed = 1;
nodes = (
(0,359,l),
(470,404,l),
(382,355,l),
(360,594,l),
(468,555,l),
(-13,510,l),
(17,561,l),
(39,321,l)
);
}
);
width = 437;
}
);
unicode = 53;
},
{
glyphname = six;
layers = (
{
layerId = "3DD6C797-E5ED-486C-89DE-75EDF9B2F8B8";
shapes = (
{
closed = 1;
nodes = (
(383,152,l),
(429,99,l),
(-26,224,l),
(69,255,l),
(6,23,l),
(-65,78,l),
(401,-50,l),
(320,-80,l)
);
},
{
closed = 1;
nodes = (
(189,99,l),
(189,525,l),
(38,488,l),
(38,99,l)
);
},
{
closed = 1;
nodes = (
(398,108,l),
(398,243,l),
(247,243,l),
(247,108,l)
);
},
{
closed = 1;
nodes = (
(442,354,l),
(560,269,l),
(128,386,l),
(223,418,l),
(163,183,l),
(89,243,l),
(541,121,l),
(382,121,l)
);
},
{
closed = 1;
nodes = (
(-6,319,l),
(426,436,l),
(337,372,l),
(277,605,l),
(407,584,l),
(-45,467,l),
(29,522,l),
(89,287,l)
);
}
);
width = 444;
}
);
unicode = 54;
},
{
glyphname = seven;
layers = (
{
layerId = "3DD6C797-E5ED-486C-89DE-75EDF9B2F8B8";
shapes = (
{
closed = 1;
nodes = (
(96,0,l),
(405,29,l),
(254,-5,l),
(367,417,l),
(383,397,l),
(146,332,l),
(210,416,l),
(97,-6,l)
);
},
{
closed = 1;
nodes = (
(-65,335,l),
(405,380,l),
(372,331,l),
(350,570,l),
(403,531,l),
(-78,486,l),
(11,537,l),
(33,297,l)
);
}
);
width = 383;
}
);
unicode = 55;
},
{
glyphname = eight;
layers = (
{
layerId = "3DD6C797-E5ED-486C-89DE-75EDF9B2F8B8";
shapes = (
{
closed = 1;
nodes = (
(36,241,l),
(539,107,l),
(380,107,l),
(440,340,l),
(558,255,l),
(28,398,l),
(89,443,l)
);
},
{
closed = 1;
nodes = (
(347,155,l),
(341,109,l),
(-114,234,l),
(59,204,l),
(-4,-28,l),
(-153,88,l),
(313,-40,l),
(284,-77,l)
);
},
{
closed = 1;
nodes = (
(187,115,l),
(187,230,l),
(36,199,l),
(36,115,l)
);
},
{
closed = 1;
nodes = (
(396,20,l),
(396,229,l),
(245,229,l),
(245,20,l)
);
},
{
closed = 1;
nodes = (
(187,241,l),
(187,500,l),
(36,500,l),
(36,241,l)
);
},
{
closed = 1;
nodes = (
(396,331,l),
(396,455,l),
(245,455,l),
(245,300,l)
);
},
{
closed = 1;
nodes = (
(373,336,l),
(436,568,l),
(585,452,l),
(119,580,l),
(148,617,l),
(85,385,l),
(91,431,l),
(546,306,l)
);
}
);
width = 442;
}
);
unicode = 56;
},
{
glyphname = nine;
layers = (
{
layerId = "3DD6C797-E5ED-486C-89DE-75EDF9B2F8B8";
shapes = (
{
closed = 1;
nodes = (
(438,511,l),
(509,456,l),
(43,584,l),
(124,614,l),
(61,382,l),
(15,435,l),
(470,310,l),
(375,279,l)
);
},
{
closed = 1;
nodes = (
(37,-110,l),
(489,13,l),
(415,-48,l),
(355,187,l),
(450,155,l),
(18,38,l),
(107,102,l),
(167,-131,l)
);
},
{
closed = 1;
nodes = (
(281,291,l),
(355,236,l),
(-97,353,l),
(62,353,l),
(2,120,l),
(-116,205,l),
(316,88,l),
(221,56,l)
);
},
{
closed = 1;
nodes = (
(197,291,l),
(197,426,l),
(46,426,l),
(46,291,l)
);
},
{
closed = 1;
nodes = (
(406,-10,l),
(406,435,l),
(255,435,l),
(255,-41,l)
);
}
);
width = 444;
}
);
unicode = 57;
},
{
glyphname = fraction;
layers = (
{
layerId = "3DD6C797-E5ED-486C-89DE-75EDF9B2F8B8";
shapes = (
{
closed = 1;
nodes = (
(149,-87,l),
(549,655,l),
(564,613,l),
(330,613,l),
(435,742,l),
(-2,-67,l),
(-37,-55,l),
(239,-55,l)
);
}
);
width = 530;
}
);
unicode = 8260;
},
{
glyphname = "zero-ar";
layers = (
{
layerId = "3DD6C797-E5ED-486C-89DE-75EDF9B2F8B8";
shapes = (
{
closed = 1;
nodes = (
(240,305,l),
(64,353,l),
(25,207,l),
(201,159,l)
);
}
);
width = 265;
}
);
unicode = 1632;
},
{
glyphname = "one-ar";
layers = (
{
layerId = "3DD6C797-E5ED-486C-89DE-75EDF9B2F8B8";
shapes = (
{
closed = 1;
nodes = (
(181,482,l),
(30,523,l),
(30,41,l),
(181,0,l)
);
}
);
width = 211;
}
);
unicode = 1633;
},
{
glyphname = "two-ar";
layers = (
{
layerId = "3DD6C797-E5ED-486C-89DE-75EDF9B2F8B8";
shapes = (
{
closed = 1;
nodes = (
(350,537,l),
(461,486,l),
(-20,531,l),
(35,570,l),
(13,331,l),
(-22,380,l),
(448,335,l),
(328,297,l)
);
},
{
closed = 1;
nodes = (
(168,347,l),
(32,384,l),
(17,376,l),
(17,41,l),
(168,0,l)
);
}
);
width = 361;
}
);
unicode = 1634;
},
{
glyphname = "three-ar";
layers = (
{
layerId = "3DD6C797-E5ED-486C-89DE-75EDF9B2F8B8";
shapes = (
{
closed = 1;
nodes = (
(166,347,l),
(15,388,l),
(15,41,l),
(166,0,l)
);
},
{
closed = 1;
nodes = (
(166,260,l),
(166,500,l),
(15,459,l),
(15,260,l)
);
},
{
closed = 1;
nodes = (
(397,235,l),
(336,180,l),
(273,412,l),
(358,381,l),
(124,317,l),
(163,171,l)
);
},
{
closed = 1;
nodes = (
(313,260,l),
(313,545,l),
(356,514,l),
(149,445,l),
(192,504,l),
(192,260,l)
);
},
{
closed = 1;
nodes = (
(501,223,l),
(462,369,l),
(271,317,l),
(310,171,l)
);
},
{
closed = 1;
nodes = (
(490,260,l),
(490,500,l),
(339,459,l),
(339,260,l)
);
}
);
width = 516;
}
);
unicode = 1635;
},
{
glyphname = "four-ar";
layers = (
{
layerId = "3DD6C797-E5ED-486C-89DE-75EDF9B2F8B8";
shapes = (
{
closed = 1;
nodes = (
(362,358,l),
(385,301,l),
(42,460,l),
(112,472,l),
(4,261,l),
(-32,327,l),
(321,165,l),
(258,141,l)
);
},
{
closed = 1;
nodes = (
(123,-15,l),
(497,52,l),
(447,18,l),
(351,245,l),
(423,194,l),
(39,124,l),
(86,148,l),
(188,-47,l)
);
},
{
closed = 1;
nodes = (
(57,81,l),
(400,240,l),
(301,137,l),
(198,355,l),
(336,376,l),
(-16,214,l),
(20,280,l),
(126,70,l)
);
},
{
closed = 1;
nodes = (
(431,523,l),
(482,489,l),
(152,547,l),
(70,390,l),
(24,417,l),
(408,347,l),
(336,296,l)
);
}
);
width = 462;
}
);
unicode = 1636;
},
{
glyphname = "five-ar";
layers = (
{
layerId = "3DD6C797-E5ED-486C-89DE-75EDF9B2F8B8";
shapes = (
{
closed = 1;
nodes = (
(425,190,l),
(461,139,l),
(-20,184,l),
(33,223,l),
(11,-16,l),
(-22,33,l),
(448,-12,l),
(403,-50,l)
);
},
{
closed = 1;
nodes = (
(-4,172,l),
(216,172,l),
(160,87,l),
(317,726,l),
(292,492,l),
(93,492,l),
(174,722,l),
(-4,58,l)
);
},
{
closed = 1;
nodes = (
(421,143,l),
(421,383,l),
(270,383,l),
(270,143,l)
);
},
{
closed = 1;
nodes = (
(436,529,l),
(496,478,l),
(15,523,l),
(118,562,l),
(96,323,l),
(13,372,l),
(483,327,l),
(414,289,l)
);
}
);
width = 447;
}
);
unicode = 1637;
},
{
glyphname = "seven-ar";
layers = (
{
layerId = "3DD6C797-E5ED-486C-89DE-75EDF9B2F8B8";
shapes = (
{
closed = 1;
nodes = (
(187,0,l),
(393,0,l),
(347,-25,l),
(511,589,l),
(511,500,l),
(291,500,l),
(347,560,l),
(190,-79,l)
);
},
{
closed = 1;
nodes = (
(155,560,l),
(211,500,l),
(-9,500,l),
(-9,589,l),
(169,-75,l),
(137,0,l),
(227,0,l),
(245,247,l),
(312,-79,l)
);
}
);
width = 502;
}
);
unicode = 1639;
},
{
glyphname = "nine-ar";
layers = (
{
layerId = "3DD6C797-E5ED-486C-89DE-75EDF9B2F8B8";
shapes = (
{
closed = 1;
nodes = (
(438,481,l),
(509,426,l),
(43,554,l),
(143,584,l),
(80,352,l),
(15,405,l),
(470,280,l),
(375,249,l)
);
},
{
closed = 1;
nodes = (
(281,261,l),
(355,206,l),
(-97,323,l),
(62,323,l),
(2,90,l),
(-116,175,l),
(316,58,l),
(221,26,l)
);
},
{
closed = 1;
nodes = (
(197,181,l),
(197,396,l),
(46,396,l),
(46,181,l)
);
},
{
closed = 1;
nodes = (
(406,0,l),
(406,405,l),
(255,405,l),
(255,-37,l)
);
}
);
width = 444;
}
);
unicode = 1641;
},
{
glyphname = "four-persian";
layers = (
{
layerId = "3DD6C797-E5ED-486C-89DE-75EDF9B2F8B8";
shapes = (
{
closed = 1;
nodes = (
(166,347,l),
(15,388,l),
(15,41,l),
(166,0,l)
);
},
{
closed = 1;
nodes = (
(166,260,l),
(166,500,l),
(15,459,l),
(15,260,l)
);
},
{
closed = 1;
nodes = (
(397,235,l),
(336,180,l),
(273,412,l),
(358,381,l),
(124,317,l),
(163,171,l)
);
},
{
closed = 1;
nodes = (
(313,260,l),
(313,545,l),
(356,504,l),
(149,448,l),
(218,504,l),
(218,260,l)
);
},
{
closed = 1;
nodes = (
(501,223,l),
(462,369,l),
(271,317,l),
(310,171,l)
);
},
{
closed = 1;
nodes = (
(491,461,l),
(414,323,l),
(351,555,l),
(452,531,l),
(218,467,l),
(269,278,l),
(214,385,l)
);
}
);
width = 516;
}
);
unicode = 1780;
},
{
glyphname = "five-persian";
layers = (
{
layerId = "3DD6C797-E5ED-486C-89DE-75EDF9B2F8B8";
shapes = (
{
closed = 1;
nodes = (
(206,41,l),
(227,39,l),
(245,248,l),
(224,250,l)
);
},
{
ref = "five-ar";
}
);
width = 447;
}
);
unicode = 1781;
},
{
glyphname = "six-persian";
layers = (
{
layerId = "3DD6C797-E5ED-486C-89DE-75EDF9B2F8B8";
shapes = (
{
closed = 1;
nodes = (
(90,247,l),
(31,220,l),
(99,85,l),
(269,164,l),
(335,300,l),
(120,400,l),
(362,356,l),
(422,500,l),
(153,547,l),
(-5,241,l),
(-41,307,l)
);
}
);
width = 437;
}
);
unicode = 1782;
},
{
glyphname = comma;
layers = (
{
layerId = "3DD6C797-E5ED-486C-89DE-75EDF9B2F8B8";
shapes = (
{
closed = 1;
nodes = (
(92,-80,l),
(135,-91,l),
(171,44,l),
(126,47,l)
);
},
{
ref = "fullstop-ar";
}
);
width = 219;
}
);
unicode = 44;
},
{
glyphname = exclam;
layers = (
{
layerId = "3DD6C797-E5ED-486C-89DE-75EDF9B2F8B8";
shapes = (
{
closed = 1;
nodes = (
(180,194,l),
(190,604,l),
(39,604,l),
(49,194,l)
);
},
{
closed = 1;
nodes = (
(198,117,l),
(60,155,l),
(30,40,l),
(167,2,l)
);
}
);
width = 228;
}
);
unicode = 33;
},
{
glyphname = question;
layers = (
{
layerId = "3DD6C797-E5ED-486C-89DE-75EDF9B2F8B8";
shapes = (
{
closed = 1;
nodes = (
(415,467,l),
(396,414,l),
(333,646,l),
(387,616,l),
(-79,488,l),
(6,547,l),
(69,315,l),
(-40,342,l)
);
},
{
closed = 1;
nodes = (
(40,83,l),
(406,183,l),
(363,127,l),
(363,360,l),
(369,327,l),
(40,232,l),
(72,281,l),
(132,46,l)
);
},
{
closed = 1;
nodes = (
(363,480,l),
(212,480,l),
(212,302,l),
(363,302,l)
);
},
{
closed = 1;
nodes = (
(232,162,l),
(81,244,l),
(81,31,l),
(232,72,l)
);
},
{
closed = 1;
nodes = (
(300,-49,l),
(268,-85,l),
(238,31,l),
(90,-9,l),
(120,-126,l),
(66,-114,l)
);
}
);
width = 399;
}
);
unicode = 63;
},
{
glyphname = asterisk;
layers = (
{
layerId = "3DD6C797-E5ED-486C-89DE-75EDF9B2F8B8";
shapes = (
{
closed = 1;
nodes = (
(73,312,l),
(337,523,l),
(341,483,l),
(255,590,l),
(273,582,l),
(27,386,l),
(28,392,l),
(105,291,l)
);
},
{
closed = 1;
nodes = (
(322,392,l),
(323,386,l),
(77,582,l),
(95,590,l),
(9,483,l),
(13,523,l),
(277,312,l),
(245,291,l)
);
},
{
closed = 1;
nodes = (
(132,297,l),
(218,297,l),
(218,598,l),
(132,598,l)
);
}
);
width = 350;
}
);
unicode = 42;
},
{
glyphname = numbersign;
layers = (
{
layerId = "3DD6C797-E5ED-486C-89DE-75EDF9B2F8B8";
shapes = (
{
closed = 1;
nodes = (
(86,349,l),
(559,349,l),
(595,452,l),
(121,452,l)
);
},
{
closed = 1;
nodes = (
(30,196,l),
(504,196,l),
(539,299,l),
(66,299,l)
);
},
{
pos = (368,101);
ref = backslash;
scale = (-0.683,0.683);
},
{
pos = (554,101);
ref = backslash;
scale = (-0.683,0.683);
}
);
width = 625;
}
);
unicode = 35;
},
{
glyphname = backslash;
layers = (
{
layerId = "3DD6C797-E5ED-486C-89DE-75EDF9B2F8B8";
shapes = (
{
closed = 1;
nodes = (
(471,-61,l),
(439,-67,l),
(144,742,l),
(219,613,l),
(30,613,l),
(285,-87,l),
(267,-61,l)
);
}
);
width = 434;
}
);
unicode = 92;
},
{
glyphname = braceleft;
layers = (
{
layerId = "3DD6C797-E5ED-486C-89DE-75EDF9B2F8B8";
shapes = (
{
closed = 1;
nodes = (
(294,37,l),
(294,308,l),
(143,308,l),
(143,-24,l)
);
},
{
closed = 1;
nodes = (
(312,340,l),
(345,278,l),
(43,455,l),
(117,441,l),
(-2,232,l),
(-22,319,l),
(270,147,l),
(193,131,l)
);
},
{
closed = 1;
nodes = (
(143,392,l),
(294,392,l),
(294,663,l),
(143,724,l)
);
},
{
closed = 1;
nodes = (
(270,553,l),
(-22,381,l),
(-2,468,l),
(117,259,l),
(43,245,l),
(345,422,l),
(312,360,l),
(193,569,l)
);
}
);
width = 324;
}
);
unicode = 123;
},
{
glyphname = bracketright;
layers = (
{
layerId = "3DD6C797-E5ED-486C-89DE-75EDF9B2F8B8";
shapes = (
{
closed = 1;
nodes = (
(143,55,l),
(294,55,l),
(294,421,l),
(143,387,l)
);
},
{
closed = 1;
nodes = (
(270,216,l),
(-22,44,l),
(-2,131,l),
(117,-78,l),
(43,-92,l),
(345,85,l),
(312,23,l),
(193,232,l)
);
},
{
closed = 1;
nodes = (
(294,372,l),
(294,643,l),
(143,643,l),
(143,311,l)
);
},
{
closed = 1;
nodes = (
(312,675,l),
(345,613,l),
(43,790,l),
(117,776,l),
(-2,567,l),
(-22,654,l),
(270,482,l),
(193,466,l)
);
}
);
width = 324;
}
);
unicode = 93;
},
{
glyphname = hyphen;
layers = (
{
layerId = "3DD6C797-E5ED-486C-89DE-75EDF9B2F8B8";
shapes = (
{
closed = 1;
nodes = (
(380,394,l),
(481,348,l),
(0,393,l),
(48,442,l),
(26,203,l),
(-2,262,l),
(468,217,l),
(358,154,l)
);
}
);
width = 408;
}
);
unicode = 45;
},
{
glyphname = endash;
layers = (
{
layerId = "3DD6C797-E5ED-486C-89DE-75EDF9B2F8B8";
shapes = (
{
closed = 1;
nodes = (
(468,394,l),
(481,348,l),
(0,393,l),
(48,442,l),
(26,203,l),
(-2,262,l),
(468,217,l),
(446,154,l)
);
}
);
width = 495;
}
);
unicode = 8211;
},
{
glyphname = emdash;
layers = (
{
layerId = "3DD6C797-E5ED-486C-89DE-75EDF9B2F8B8";
shapes = (
{
closed = 1;
nodes = (
(676,394,l),
(731,325,l),
(0,393,l),
(48,442,l),
(26,203,l),
(-2,262,l),
(682,197,l),
(654,154,l)
);
}
);
width = 701;
}
);
unicode = 8212;
},
{
glyphname = underscore;
layers = (
{
layerId = "3DD6C797-E5ED-486C-89DE-75EDF9B2F8B8";
shapes = (
{
closed = 1;
nodes = (
(374,-48,l),
(475,-94,l),
(-6,-49,l),
(42,0,l),
(20,-239,l),
(-8,-124,l),
(462,-169,l),
(352,-288,l)
);
}
);
width = 401;
}
);
unicode = 95;
},
{
glyphname = quoteright;
layers = (
{
layerId = "3DD6C797-E5ED-486C-89DE-75EDF9B2F8B8";
shapes = (
{
closed = 1;
nodes = (
(205,664,l),
(79,700,l),
(30,473,l),
(155,437,l)
);
}
);
width = 235;
}
);
unicode = 8217;
},
{
glyphname = guilsinglleft;
layers = (
{
layerId = "3DD6C797-E5ED-486C-89DE-75EDF9B2F8B8";
shapes = (
{
closed = 1;
nodes = (
(312,131,l),
(312,123,l),
(8,468,l),
(136,371,l),
(14,233,l),
(-101,400,l),
(228,28,l),
(177,5,l)
);
},
{
closed = 1;
nodes = (
(364,110,l),
(354,60,l),
(268,243,l),
(309,224,l),
(104,129,l),
(139,208,l),
(223,27,l),
(157,15,l)
);
},
{
closed = 1;
nodes = (
(3,28,l),
(331,400,l),
(345,343,l),
(194,475,l),
(223,468,l),
(-82,123,l),
(14,269,l),
(136,132,l)
);
},
{
closed = 1;
nodes = (
(351,440,l),
(361,390,l),
(154,485,l),
(220,473,l),
(137,292,l),
(101,371,l),
(307,276,l),
(265,258,l)
);
}
);
width = 366;
}
);
unicode = 8249;
},
{
glyphname = quotesingle;
layers = (
{
layerId = "3DD6C797-E5ED-486C-89DE-75EDF9B2F8B8";
shapes = (
{
closed = 1;
nodes = (
(189,664,l),
(59,700,l),
(54,473,l),
(183,437,l)
);
}
);
width = 219;
}
);
unicode = 39;
},
{
glyphname = "fullstop-ar";
layers = (
{
layerId = "3DD6C797-E5ED-486C-89DE-75EDF9B2F8B8";
shapes = (
{
closed = 1;
nodes = (
(189,109,l),
(59,145,l),
(30,36,l),
(159,0,l)
);
}
);
width = 219;
}
);
unicode = 1748;
},
{
glyphname = cent;
layers = (
{
layerId = "3DD6C797-E5ED-486C-89DE-75EDF9B2F8B8";
shapes = (
{
closed = 1;
nodes = (
(242,295,l),
(294,606,l),
(381,554,l),
(213,585,l),
(167,317,l),
(147,429,l),
(347,395,l)
);
},
{
closed = 1;
nodes = (
(166,-178,l),
(218,133,l),
(305,81,l),
(137,112,l),
(91,-156,l),
(71,-44,l),
(271,-78,l)
);
},
{
ref = c;
}
);
width = 394;
}
);
unicode = 162;
},
{
glyphname = currency;
layers = (
{
layerId = "3DD6C797-E5ED-486C-89DE-75EDF9B2F8B8";
shapes = (
{
closed = 1;
nodes = (
(254,356,l),
(474,532,l),
(477,498,l),
(405,588,l),
(420,581,l),
(215,418,l),
(265,481,l),
(329,397,l)
);
},
{
closed = 1;
nodes = (
(-7,61,l),
(213,237,l),
(217,204,l),
(145,293,l),
(160,286,l),
(-45,123,l),
(4,186,l),
(68,102,l)
);
},
{
closed = 1;
nodes = (
(210,481,l),
(260,417,l),
(55,581,l),
(70,587,l),
(-2,498,l),
(1,531,l),
(221,356,l),
(146,396,l)
);
},
{
closed = 1;
nodes = (
(471,186,l),
(520,123,l),
(315,286,l),
(330,293,l),
(259,204,l),
(262,237,l),
(482,61,l),
(407,102,l)
);
},
{
pos = (76,143);
ref = o;
scale = (0.8333,0.8333);
}
);
width = 475;
}
);
unicode = 164;
},
{
glyphname = dollar;
layers = (
{
layerId = "3DD6C797-E5ED-486C-89DE-75EDF9B2F8B8";
shapes = (
{
closed = 1;
nodes = (
(292,345,l),
(337,612,l),
(213,635,l),
(167,367,l),
(147,479,l),
(347,445,l)
);
},
{
closed = 1;
nodes = (
(228,-187,l),
(274,80,l),
(150,103,l),
(104,-165,l),
(84,-53,l),
(283,-87,l)
);
},
{
pos = (2,2);
ref = S;
scale = (0.8333,0.8333);
}
);
width = 420;
}
);
unicode = 36;
},
{
glyphname = euro;
layers = (
{
layerId = "3DD6C797-E5ED-486C-89DE-75EDF9B2F8B8";
shapes = (
{
closed = 1;
nodes = (
(15,345,l),
(339,345,l),
(339,402,l),
(15,402,l)
);
},
{
closed = 1;
nodes = (
(15,241,l),
(339,241,l),
(339,298,l),
(15,298,l)
);
},
{
pos = (12,0);
ref = C;
}
);
width = 503;
}
);
unicode = 8364;
},
{
glyphname = sterling;
layers = (
{
layerId = "3DD6C797-E5ED-486C-89DE-75EDF9B2F8B8";
shapes = (
{
closed = 1;
nodes = (
(193,345,l),
(339,345,l),
(339,402,l),
(193,402,l)
);
},
{
closed = 1;
nodes = (
(193,241,l),
(339,241,l),
(339,298,l),
(193,298,l)
);
},
{
closed = 1;
nodes = (
(15,345,l),
(148,345,l),
(148,402,l),
(15,402,l)
);
},
{
closed = 1;
nodes = (
(15,241,l),
(148,241,l),
(148,298,l),
(15,298,l)
);
},
{
closed = 1;
nodes = (
(368,177,l),
(387,111,l),
(58,206,l),
(73,239,l),
(13,6,l),
(21,62,l),
(387,-38,l),
(308,-58,l)
);
},
{
closed = 1;
nodes = (
(240,171,l),
(240,490,l),
(89,490,l),
(89,171,l)
);
},
{
closed = 1;
nodes = (
(537,41,l),
(486,-14,l),
(423,218,l),
(498,187,l),
(279,127,l),
(318,-19,l)
);
},
{
closed = 1;
nodes = (
(418,704,l),
(52,604,l),
(44,660,l),
(104,427,l),
(89,460,l),
(418,555,l),
(399,489,l),
(339,724,l)
);
},
{
closed = 1;
nodes = (
(310,539,l),
(529,479,l),
(454,448,l),
(517,680,l),
(568,625,l),
(349,685,l)
);
}
);
width = 527;
}
);
unicode = 163;
},
{
glyphname = yen;
layers = (
{
layerId = "3DD6C797-E5ED-486C-89DE-75EDF9B2F8B8";
shapes = (
{
closed = 1;
nodes = (
(290,401,l),
(476,327,l),
(21,452,l),
(66,483,l),
(3,251,l),
(-18,306,l),
(448,178,l),
(221,148,l)
);
},
{
closed = 1;
nodes = (
(199,338,l),
(199,779,l),
(48,779,l),
(48,338,l)
);
},
{
closed = 1;
nodes = (
(221,859,l),
(273,804,l),
(54,864,l),
(15,718,l),
(234,658,l),
(158,627,l)
);
},
{
closed = 1;
nodes = (
(551,816,l),
(375,864,l),
(336,718,l),
(512,670,l)
);
},
{
closed = 1;
nodes = (
(120,178,l),
(586,306,l),
(565,251,l),
(502,483,l),
(547,452,l),
(92,327,l),
(278,401,l),
(347,148,l)
);
},
{
closed = 1;
nodes = (
(520,779,l),
(369,779,l),
(369,338,l),
(520,338,l)
);
},
{
closed = 1;
nodes = (
(356,383,l),
(205,383,l),
(205,0,l),
(356,0,l)
);
},
{
closed = 1;
nodes = (
(120,152,l),
(444,152,l),
(444,209,l),
(120,209,l)
);
},
{
closed = 1;
nodes = (
(120,58,l),
(444,58,l),
(444,115,l),
(120,115,l)
);
}
);
width = 568;
}
);
unicode = 165;
},
{
glyphname = plus;
layers = (
{
layerId = "3DD6C797-E5ED-486C-89DE-75EDF9B2F8B8";
shapes = (
{
closed = 1;
nodes = (
(30,195,l),
(435,195,l),
(435,312,l),
(30,312,l)
);
},
{
closed = 1;
nodes = (
(291,51,l),
(291,456,l),
(174,456,l),
(174,51,l)
);
}
);
width = 600;
}
);
unicode = 43;
},
{
glyphname = minus;
layers = (
{
layerId = "3DD6C797-E5ED-486C-89DE-75EDF9B2F8B8";
shapes = (
{
closed = 1;
nodes = (
(30,195,l),
(345,195,l),
(345,312,l),
(30,312,l)
);
}
);
width = 375;
}
);
unicode = 8722;
},
{
glyphname = multiply;
layers = (
{
layerId = "3DD6C797-E5ED-486C-89DE-75EDF9B2F8B8";
shapes = (
{
closed = 1;
nodes = (
(388,141,l),
(388,134,l),
(109,450,l),
(135,456,l),
(-3,335,l),
(10,387,l),
(311,47,l),
(265,25,l)
);
},
{
closed = 1;
nodes = (
(105,47,l),
(406,387,l),
(419,335,l),
(281,456,l),
(307,450,l),
(28,134,l),
(28,141,l),
(151,25,l)
);
}
);
width = 416;
}
);
unicode = 215;
},
{
glyphname = divide;
layers = (
{
layerId = "3DD6C797-E5ED-486C-89DE-75EDF9B2F8B8";
shapes = (
{
closed = 1;
nodes = (
(30,195,l),
(385,195,l),
(385,312,l),
(30,312,l)
);
},
{
closed = 1;
nodes = (
(165,394,l),
(251,394,l),
(251,480,l),
(165,480,l)
);
},
{
closed = 1;
nodes = (
(251,27,l),
(251,113,l),
(165,113,l),
(165,27,l)
);
}
);
width = 415;
}
);
unicode = 247;
},
{
glyphname = equal;
layers = (
{
layerId = "3DD6C797-E5ED-486C-89DE-75EDF9B2F8B8";
shapes = (
{
closed = 1;
nodes = (
(30,111,l),
(345,111,l),
(345,228,l),
(30,228,l)
);
},
{
closed = 1;
nodes = (
(30,266,l),
(345,266,l),
(345,383,l),
(30,383,l)
);
}
);
width = 375;
}
);
unicode = 61;
},
{
glyphname = notequal;
layers = (
{
layerId = "3DD6C797-E5ED-486C-89DE-75EDF9B2F8B8";
shapes = (
{
closed = 1;
nodes = (
(99,62,l),
(175,41,l),
(280,433,l),
(204,454,l)
);
},
{
ref = equal;
}
);
width = 375;
}
);
unicode = 8800;
},
{
glyphname = greater;
layers = (
{
layerId = "3DD6C797-E5ED-486C-89DE-75EDF9B2F8B8";
shapes = (
{
closed = 1;
nodes = (
(151,458,l),
(31,403,l),
(14,423,l),
(166,251,l),
(-2,62,l),
(29,98,l),
(149,42,l),
(334,251,l)
);
}
);
width = 364;
}
);
unicode = 62;
},
{
glyphname = asciitilde;
layers = (
{
layerId = "3DD6C797-E5ED-486C-89DE-75EDF9B2F8B8";
shapes = (
{
closed = 1;
nodes = (
(300,360,l),
(-66,260,l),
(12,316,l),
(72,83,l),
(-29,116,l),
(300,211,l),
(281,145,l),
(221,380,l)
);
},
{
closed = 1;
nodes = (
(192,195,l),
(411,135,l),
(336,104,l),
(399,336,l),
(450,281,l),
(231,341,l)
);
},
{
closed = 1;
nodes = (
(592,371,l),
(226,271,l),
(304,327,l),
(364,94,l),
(263,127,l),
(592,222,l),
(573,156,l),
(513,391,l)
);
}
);
width = 579;
}
);
unicode = 126;
},
{
glyphname = logicalnot;
layers = (
{
layerId = "3DD6C797-E5ED-486C-89DE-75EDF9B2F8B8";
shapes = (
{
closed = 1;
nodes = (
(30,195,l),
(542,195,l),
(542,312,l),
(30,312,l)
);
},
{
closed = 1;
nodes = (
(542,77,l),
(542,312,l),
(425,312,l),
(425,77,l)
);
}
);
width = 572;
}
);
unicode = 172;
},
{
glyphname = asciicircum;
layers = (
{
layerId = "3DD6C797-E5ED-486C-89DE-75EDF9B2F8B8";
shapes = (
{
closed = 1;
nodes = (
(50,470,l),
(105,350,l),
(85,333,l),
(257,485,l),
(446,317,l),
(410,348,l),
(466,468,l),
(257,653,l)
);
}
);
width = 516;
}
);
unicode = 94;
},
{
glyphname = leftArrow;
layers = (
{
layerId = "3DD6C797-E5ED-486C-89DE-75EDF9B2F8B8";
shapes = (
{
closed = 1;
nodes = (
(200,42,l),
(320,98,l),
(351,62,l),
(183,251,l),
(335,423,l),
(318,403,l),
(198,458,l),
(15,251,l)
);
},
{
closed = 1;
nodes = (
(509,323,l),
(613,296,l),
(130,289,l),
(174,342,l),
(173,102,l),
(135,214,l),
(607,201,l),
(508,82,l)
);
}
);
width = 524;
}
);
unicode = 8592;
},
{
glyphname = lozenge;
layers = (
{
layerId = "3DD6C797-E5ED-486C-89DE-75EDF9B2F8B8";
shapes = (
{
closed = 1;
nodes = (
(34,425,l),
(89,305,l),
(69,288,l),
(241,440,l),
(430,272,l),
(394,303,l),
(450,423,l),
(241,608,l)
);
},
{
closed = 1;
nodes = (
(450,185,l),
(394,305,l),
(430,336,l),
(241,168,l),
(69,320,l),
(89,303,l),
(34,183,l),
(241,0,l)
);
}
);
width = 484;
}
);
unicode = 9674;
},
{
glyphname = at;
layers = (
{
layerId = "3DD6C797-E5ED-486C-89DE-75EDF9B2F8B8";
shapes = (
{
closed = 1;
nodes = (
(837,603,l),
(414,719,l),
(435,749,l),
(372,517,l),
(386,570,l),
(798,457,l)
);
},
{
closed = 1;
nodes = (
(837,105,l),
(837,603,l),
(686,603,l),
(686,105,l)
);
},
{
closed = 1;
nodes = (
(408,-3,l),
(420,43,l),
(518,18,l),
(628,143,l),
(576,157,l),
(576,290,l),
(596,285,l),
(634,432,l),
(337,510,l),
(307,392,l),
(228,392,l),
(228,90,l),
(217,49,l)
);
},
{
closed = 1;
nodes = (
(379,343,l),
(425,331,l),
(425,150,l),
(379,162,l)
);
},
{
closed = 1;
nodes = (
(466,570,l),
(480,517,l),
(417,749,l),
(438,719,l),
(15,603,l),
(54,457,l)
);
},
{
closed = 1;
nodes = (
(166,603,l),
(15,603,l),
(15,119,l),
(166,119,l)
);
},
{
closed = 1;
nodes = (
(386,-83,l),
(372,-30,l),
(435,-262,l),
(414,-232,l),
(880,-104,l),
(837,-159,l),
(837,73,l),
(841,42,l)
);
},
{
closed = 1;
nodes = (
(15,-116,l),
(438,-232,l),
(417,-262,l),
(480,-30,l),
(466,-83,l),
(54,30,l)
);
},
{
closed = 1;
nodes = (
(15,368,l),
(15,-116,l),
(166,-116,l),
(166,368,l)
);
},
{
closed = 1;
nodes = (
(386,138,l),
(471,191,l),
(534,-41,l),
(414,-11,l),
(837,105,l),
(798,251,l)
);
}
);
width = 852;
}
);
unicode = 64;
},
{
glyphname = ampersand;
layers = (
{
layerId = "3DD6C797-E5ED-486C-89DE-75EDF9B2F8B8";
shapes = (
{
closed = 1;
nodes = (
(486,68,l),
(467,15,l),
(404,247,l),
(458,217,l),
(15,95,l),
(15,76,l),
(229,-49,l),
(31,-57,l)
);
},
{
closed = 1;
nodes = (
(415,363,l),
(264,363,l),
(264,181,l),
(415,181,l)
);
},
{
closed = 1;
nodes = (
(166,331,l),
(15,331,l),
(15,76,l),
(166,76,l)
);
},
{
closed = 1;
nodes = (
(314,256,l),
(290,212,l),
(218,478,l),
(269,401,l),
(15,331,l),
(54,185,l)
);
},
{
closed = 1;
nodes = (
(-12,412,l),
(443,537,l),
(333,458,l),
(270,690,l),
(415,686,l),
(-51,558,l),
(5,613,l),
(68,381,l)
);
},
{
closed = 1;
nodes = (
(166,576,l),
(15,576,l),
(15,375,l),
(166,333,l)
);
},
{
closed = 1;
nodes = (
(264,277,l),
(466,269,l),
(481,394,l),
(264,403,l)
);
}
);
width = 496;
}
);
unicode = 38;
},
{
glyphname = paragraph;
layers = (
{
layerId = "3DD6C797-E5ED-486C-89DE-75EDF9B2F8B8";
shapes = (
{
closed = 1;
nodes = (
(694,0,l),
(694,666,l),
(543,666,l),
(543,0,l)
);
},
{
pos = (497,0);
ref = P;
scale = (-1,1);
}
);
width = 742;
}
);
unicode = 182;
},
{
glyphname = section;
layers = (
{
layerId = "3DD6C797-E5ED-486C-89DE-75EDF9B2F8B8";
shapes = (
{
closed = 1;
nodes = (
(433,496,l),
(413,448,l),
(204,699,l),
(89,601,l),
(297,351,l),
(247,341,l)
);
},
{
closed = 1;
nodes = (
(524,239,l),
(217,323,l),
(153,146,l),
(101,198,l),
(384,121,l)
);
},
{
closed = 1;
nodes = (
(558,267,l),
(558,383,l),
(398,572,l),
(439,582,l),
(256,426,l),
(283,474,l),
(499,218,l)
);
},
{
closed = 1;
nodes = (
(552,725,l),
(312,790,l),
(172,672,l),
(479,588,l)
);
},
{
closed = 1;
nodes = (
(359,244,l),
(339,196,l),
(130,447,l),
(15,349,l),
(223,99,l),
(173,89,l)
);
},
{
closed = 1;
nodes = (
(450,-29,l),
(143,55,l),
(70,-82,l),
(310,-147,l)
);
},
{
closed = 1;
nodes = (
(484,-1,l),
(484,115,l),
(324,304,l),
(365,314,l),
(182,158,l),
(209,206,l),
(425,-50,l)
);
},
{
closed = 1;
nodes = (
(478,473,l),
(238,538,l),
(98,420,l),
(405,336,l)
);
}
);
width = 573;
}
);
unicode = 167;
},
{
glyphname = copyright;
layers = (
{
layerId = "3DD6C797-E5ED-486C-89DE-75EDF9B2F8B8";
shapes = (
{
closed = 1;
nodes = (
(441,735,l),
(229,793,l),
(240,808,l),
(208,692,l),
(215,719,l),
(421,662,l)
);
},
{
closed = 1;
nodes = (
(441,421,l),
(441,735,l),
(365,735,l),
(365,421,l)
);
},
{
closed = 1;
nodes = (
(255,719,l),
(262,692,l),
(231,808,l),
(241,793,l),
(30,735,l),
(49,662,l)
);
},
{
closed = 1;
nodes = (
(105,735,l),
(30,735,l),
(30,493,l),
(105,493,l)
);
},
{
closed = 1;
nodes = (
(215,392,l),
(208,419,l),
(240,303,l),
(229,318,l),
(462,382,l),
(441,354,l),
(441,470,l),
(443,455,l)
);
},
{
closed = 1;
nodes = (
(30,376,l),
(241,318,l),
(231,303,l),
(262,419,l),
(255,392,l),
(49,449,l)
);
},
{
closed = 1;
nodes = (
(30,618,l),
(30,376,l),
(105,376,l),
(105,618,l)
);
},
{
closed = 1;
nodes = (
(299,623,l),
(188,652,l),
(174,597,l),
(285,567,l)
);
},
{
closed = 1;
nodes = (
(267,527,l),
(267,506,l),
(179,530,l),
(165,475,l),
(253,451,l),
(244,440,l)
);
},
{
closed = 1;
nodes = (
(225,489,l),
(225,589,l),
(169,589,l),
(169,489,l)
);
},
{
closed = 1;
nodes = (
(326,498,l),
(309,471,l),
(263,550,l),
(298,547,l),
(218,502,l),
(247,453,l)
);
}
);
width = 471;
}
);
unicode = 169;
},
{
glyphname = registered;
layers = (
{
layerId = "3DD6C797-E5ED-486C-89DE-75EDF9B2F8B8";
shapes = (
{
closed = 1;
nodes = (
(441,735,l),
(229,793,l),
(240,808,l),
(208,692,l),
(215,719,l),
(421,662,l)
);
},
{
closed = 1;
nodes = (
(441,421,l),
(441,735,l),
(365,735,l),
(365,421,l)
);
},
{
closed = 1;
nodes = (
(255,719,l),
(262,692,l),
(231,808,l),
(241,793,l),
(30,735,l),
(49,662,l)
);
},
{
closed = 1;
nodes = (
(105,735,l),
(30,735,l),
(30,493,l),
(105,493,l)
);
},
{
closed = 1;
nodes = (
(215,392,l),
(208,419,l),
(240,303,l),
(229,318,l),
(462,382,l),
(441,354,l),
(441,470,l),
(443,455,l)
);
},
{
closed = 1;
nodes = (
(30,376,l),
(241,318,l),
(231,303,l),
(262,419,l),
(255,392,l),
(49,449,l)
);
},
{
closed = 1;
nodes = (
(30,618,l),
(30,376,l),
(105,376,l),
(105,618,l)
);
},
{
closed = 1;
nodes = (
(296,647,l),
(305,632,l),
(161,646,l),
(175,657,l),
(169,586,l),
(161,601,l),
(301,587,l),
(289,576,l)
);
},
{
closed = 1;
nodes = (
(231,497,l),
(178,511,l),
(166,467,l),
(219,453,l)
);
},
{
closed = 1;
nodes = (
(231,497,l),
(178,511,l),
(166,467,l),
(219,453,l)
);
},
{
closed = 1;
nodes = (
(221,478,l),
(221,597,l),
(176,597,l),
(176,478,l)
);
},
{
closed = 1;
nodes = (
(302,497,l),
(250,511,l),
(238,467,l),
(290,453,l)
);
},
{
closed = 1;
nodes = (
(290,523,l),
(245,523,l),
(245,465,l),
(290,453,l)
);
},
{
closed = 1;
nodes = (
(290,523,l),
(290,551,l),
(307,543,l),
(210,570,l),
(227,592,l),
(212,536,l),
(295,513,l),
(285,509,l)
);
},
{
closed = 1;
nodes = (
(290,565,l),
(290,591,l),
(245,591,l),
(245,536,l)
);
}
);
width = 471;
}
);
unicode = 174;
},
{
glyphname = trademark;
layers = (
{
layerId = "3DD6C797-E5ED-486C-89DE-75EDF9B2F8B8";
shapes = (
{
closed = 1;
nodes = (
(199,690,l),
(211,670,l),
(17,688,l),
(36,704,l),
(28,607,l),
(16,627,l),
(206,609,l),
(189,593,l)
);
},
{
closed = 1;
nodes = (
(143,486,l),
(73,506,l),
(57,447,l),
(128,427,l)
);
},
{
closed = 1;
nodes = (
(143,486,l),
(73,506,l),
(57,447,l),
(128,427,l)
);
},
{
closed = 1;
nodes = (
(84,493,l),
(99,497,l),
(130,497,l),
(130,618,l),
(70,618,l),
(70,493,l)
);
},
{
closed = 1;
nodes = (
(291,462,l),
(291,663,l),
(229,663,l),
(229,462,l)
);
},
{
closed = 1;
nodes = (
(304,487,l),
(233,506,l),
(217,447,l),
(288,427,l)
);
},
{
closed = 1;
nodes = (
(395,487,l),
(306,510,l),
(337,523,l),
(311,430,l),
(291,452,l),
(379,427,l)
);
},
{
closed = 1;
nodes = (
(295,679,l),
(313,657,l),
(225,681,l),
(209,622,l),
(298,598,l),
(270,586,l)
);
},
{
closed = 1;
nodes = (
(381,462,l),
(381,639,l),
(321,639,l),
(321,462,l)
);
},
{
closed = 1;
nodes = (
(486,487,l),
(397,510,l),
(428,523,l),
(403,430,l),
(381,452,l),
(470,427,l)
);
},
{
closed = 1;
nodes = (
(400,675,l),
(408,652,l),
(220,704,l),
(311,716,l),
(284,614,l),
(209,644,l),
(392,593,l),
(374,581,l)
);
},
{
closed = 1;
nodes = (
(472,462,l),
(472,639,l),
(411,639,l),
(411,462,l)
);
},
{
closed = 1;
nodes = (
(490,675,l),
(499,652,l),
(311,704,l),
(403,716,l),
(374,614,l),
(299,644,l),
(483,593,l),
(465,581,l)
);
}
);
width = 516;
}
);
unicode = 8482;
},
{
glyphname = bar;
layers = (
{
layerId = "3DD6C797-E5ED-486C-89DE-75EDF9B2F8B8";
shapes = (
{
closed = 1;
nodes = (
(15,-94,l),
(90,-94,l),
(90,700,l),
(15,700,l)
);
}
);
width = 105;
}
);
unicode = 124;
},
{
glyphname = brokenbar;
layers = (
{
layerId = "3DD6C797-E5ED-486C-89DE-75EDF9B2F8B8";
shapes = (
{
closed = 1;
nodes = (
(15,418,l),
(90,418,l),
(90,700,l),
(15,700,l)
);
},
{
closed = 1;
nodes = (
(15,0,l),
(90,0,l),
(90,282,l),
(15,282,l)
);
}
);
width = 105;
}
);
unicode = 166;
},
{
glyphname = dieresiscomb;
layers = (
{
anchors = (
{
name = _top;
pos = (173,500);
},
{
name = top;
pos = (173,700);
}
);
layerId = "3DD6C797-E5ED-486C-89DE-75EDF9B2F8B8";
shapes = (
{
closed = 1;
nodes = (
(227,690,l),
(258,590,l),
(-4,662,l),
(51,738,l),
(0,549,l),
(173,500,l)
);
},
{
closed = 1;
nodes = (
(371,690,l),
(402,590,l),
(140,662,l),
(195,738,l),
(144,549,l),
(317,500,l)
);
}
);
width = 345;
}
);
unicode = 776;
},
{
glyphname = dotaccentcomb;
layers = (
{
anchors = (
{
name = _top;
pos = (84,500);
},
{
name = top;
pos = (84,652);
}
);
layerId = "3DD6C797-E5ED-486C-89DE-75EDF9B2F8B8";
shapes = (
{
closed = 1;
nodes = (
(199,689,l),
(240,589,l),
(-22,661,l),
(53,737,l),
(-10,505,l),
(-61,560,l),
(201,488,l),
(136,457,l)
);
}
);
width = 177;
}
);
unicode = 775;
},
{
glyphname = gravecomb;
layers = (
{
anchors = (
{
name = _top;
pos = (110,653);
},
{
name = top;
pos = (110,980);
}
);
layerId = "3DD6C797-E5ED-486C-89DE-75EDF9B2F8B8";
shapes = (
{
closed = 1;
nodes = (
(246,833,l),
(353,677,l),
(-113,895,l),
(47,882,l),
(-16,650,l),
(-141,746,l),
(314,621,l),
(183,601,l)
);
}
);
width = 220;
}
);
unicode = 768;
},
{
glyphname = acutecomb;
layers = (
{
anchors = (
{
name = _top;
pos = (110,653);
},
{
name = top;
pos = (110,980);
}
);
layerId = "3DD6C797-E5ED-486C-89DE-75EDF9B2F8B8";
shapes = (
{
closed = 1;
nodes = (
(-94,621,l),
(361,746,l),
(236,650,l),
(173,882,l),
(333,895,l),
(-133,677,l),
(-26,833,l),
(37,601,l)
);
}
);
width = 220;
}
);
unicode = 769;
},
{
glyphname = hungarumlautcomb;
layers = (
{
anchors = (
{
name = _top;
pos = (149.5,500);
},
{
name = top;
pos = (150,773);
}
);
layerId = "3DD6C797-E5ED-486C-89DE-75EDF9B2F8B8";
shapes = (
{
closed = 1;
nodes = (
(168,479,l),
(320,699,l),
(348,634,l),
(196,739,l),
(233,751,l),
(119,506,l),
(107,552,l),
(204,484,l)
);
},
{
closed = 1;
nodes = (
(36,479,l),
(188,699,l),
(216,634,l),
(64,739,l),
(101,751,l),
(-13,506,l),
(-25,552,l),
(72,484,l)
);
}
);
width = 299;
}
);
unicode = 779;
},
{
glyphname = circumflexcomb;
layers = (
{
anchors = (
{
name = _top;
pos = (121,674);
},
{
name = top;
pos = (121,896);
}
);
layerId = "3DD6C797-E5ED-486C-89DE-75EDF9B2F8B8";
shapes = (
{
closed = 1;
nodes = (
(342,755,l),
(188,827,l),
(74,671,l),
(15,746,l),
(318,663,l),
(284,627,l),
(331,799,l)
);
},
{
closed = 1;
nodes = (
(212,738,l),
(188,827,l),
(0,739,l),
(14,684,l)
);
}
);
width = 322;
}
);
unicode = 770;
},
{
glyphname = caroncomb;
layers = (
{
anchors = (
{
name = _top;
pos = (160,669);
},
{
name = top;
pos = (159.5,823);
}
);
layerId = "3DD6C797-E5ED-486C-89DE-75EDF9B2F8B8";
shapes = (
{
closed = 1;
nodes = (
(274,869,l),
(318,833,l),
(89,741,l),
(74,825,l),
(188,669,l),
(343,772,l),
(331,727,l)
);
},
{
closed = 1;
nodes = (
(0,757,l),
(188,669,l),
(212,758,l),
(14,812,l)
);
}
);
width = 319;
}
);
unicode = 780;
},
{
glyphname = brevecomb;
layers = (
{
anchors = (
{
name = _top;
pos = (107,500);
},
{
name = top;
pos = (107,678);
}
);
layerId = "3DD6C797-E5ED-486C-89DE-75EDF9B2F8B8";
shapes = (
{
closed = 1;
nodes = (
(248,579,o),
(240,577,o),
(233,577,c),
(168,577,o),
(110,609,o),
(75,658,c),
(0,633,l),
(26,556,o),
(97,500,o),
(183,500,c),
(215,500,o),
(261,518,o),
(288,532,c),
(256,579,l)
);
}
);
width = 274;
}
);
unicode = 774;
},
{
glyphname = ringcomb;
layers = (
{
anchors = (
{
name = _top;
pos = (130,701);
},
{
name = top;
pos = (130,954);
}
);
layerId = "3DD6C797-E5ED-486C-89DE-75EDF9B2F8B8";
shapes = (
{
closed = 1;
nodes = (
(212,827,l),
(287,717,l),
(-41,871,l),
(71,862,l),
(27,698,l),
(-61,766,l),
(260,678,l),
(167,664,l)
);
},
{
closed = 1;
nodes = (
(38,739,l),
(103,739,l),
(103,897,l),
(38,897,l)
);
},
{
closed = 1;
nodes = (
(48,807,l),
(-27,917,l),
(301,763,l),
(189,772,l),
(233,936,l),
(321,868,l),
(0,956,l),
(93,970,l)
);
},
{
closed = 1;
nodes = (
(222,895,l),
(157,895,l),
(157,737,l),
(222,737,l)
);
}
);
width = 260;
}
);
unicode = 778;
},
{
glyphname = tildecomb;
layers = (
{
anchors = (
{
name = _top;
pos = (153,664);
},
{
name = top;
pos = (153,829);
}
);
layerId = "3DD6C797-E5ED-486C-89DE-75EDF9B2F8B8";
shapes = (
{
closed = 1;
nodes = (
(281,833,l),
(431,677,l),
(-35,895,l),
(125,882,l),
(62,650,l),
(-63,746,l),
(392,621,l),
(218,601,l)
);
},
{
closed = 1;
nodes = (
(-35,610,l),
(252,814,l),
(189,714,l),
(86,861,l),
(194,911,l),
(-77,639,l),
(-41,776,l),
(62,629,l)
);
},
{
closed = 1;
nodes = (
(380,881,l),
(93,677,l),
(156,777,l),
(259,630,l),
(151,580,l),
(422,852,l),
(386,715,l),
(283,862,l)
);
}
);
width = 345;
}
);
unicode = 771;
},
{
glyphname = macroncomb;
layers = (
{
anchors = (
{
name = _top;
pos = (162,550);
},
{
name = top;
pos = (162,697);
}
);
layerId = "3DD6C797-E5ED-486C-89DE-75EDF9B2F8B8";
shapes = (
{
closed = 1;
nodes = (
(-107,571,l),
(364,599,l),
(326,543,l),
(313,783,l),
(368,700,l),
(-133,634,l),
(-6,764,l),
(7,524,l)
);
}
);
width = 323;
}
);
unicode = 772;
},
{
glyphname = commaturnedabovecomb;
layers = (
{
anchors = (
{
name = _top;
pos = (82.5,500);
},
{
name = top;
pos = (82.5,723);
}
);
layerId = "3DD6C797-E5ED-486C-89DE-75EDF9B2F8B8";
shapes = (
{
closed = 1;
nodes = (
(128,745,l),
(-21,522,l),
(-51,587,l),
(104,484,l),
(67,472,l),
(177,719,l),
(189,673,l),
(92,739,l)
);
},
{
closed = 1;
nodes = (
(38,500,l),
(165,500,l),
(165,592,l),
(38,592,l)
);
}
);
width = 165;
}
);
unicode = 786;
},
{
glyphname = commaaccentcomb;
layers = (
{
anchors = (
{
name = _bottom;
pos = (287.5,0);
},
{
name = bottom;
pos = (287.5,-266);
}
);
layerId = "3DD6C797-E5ED-486C-89DE-75EDF9B2F8B8";
shapes = (
{
closed = 1;
nodes = (
(240,-286,l),
(392,-66,l),
(420,-131,l),
(268,-26,l),
(305,-14,l),
(191,-259,l),
(179,-213,l),
(276,-281,l)
);
}
);
width = 600;
}
);
unicode = 806;
},
{
glyphname = cedillacomb;
layers = (
{
anchors = (
{
name = _bottom;
pos = (45,-12);
},
{
name = bottom;
pos = (92,-269);
}
);
layerId = "3DD6C797-E5ED-486C-89DE-75EDF9B2F8B8";
shapes = (
{
closed = 1;
nodes = (
(174,-143,l),
(249,-253,l),
(-79,-99,l),
(33,-108,l),
(-11,-272,l),
(-99,-204,l),
(222,-292,l),
(129,-306,l)
);
},
{
closed = 1;
nodes = (
(10,-164,l),
(-65,-54,l),
(263,-208,l),
(151,-199,l),
(195,-35,l),
(283,-103,l),
(-38,-15,l),
(55,-11,l)
);
},
{
closed = 1;
nodes = (
(184,-76,l),
(119,-76,l),
(119,-234,l),
(184,-234,l)
);
},
{
closed = 1;
nodes = (
(63,0,l),
(28,0,l),
(28,-98,l),
(63,-98,l)
);
}
);
width = 184;
}
);
unicode = 807;
},
{
glyphname = ogonekcomb;
layers = (
{
anchors = (
{
name = _ogonek;
pos = (56,26);
}
);
layerId = "3DD6C797-E5ED-486C-89DE-75EDF9B2F8B8";
shapes = (
{
closed = 1;
nodes = (
(204,-108,o),
(197,-108,o),
(191,-108,c),
(138,-108,o),
(91,-82,o),
(62,-42,c),
(0,-63,l),
(21,-126,o),
(81,-171,o),
(151,-171,c),
(178,-171,o),
(203,-164,o),
(225,-152,c),
(210,-107,l)
);
},
{
closed = 1;
nodes = (
(91,3,l),
(24,47,l),
(77,60,l),
(-8,-76,l),
(-12,-55,l),
(77,-113,l),
(15,-118,l)
);
}
);
width = 225;
}
);
unicode = 808;
},
{
glyphname = "tahabove-ar";
layers = (
{
anchors = (
{
name = _top;
pos = (87,500);
},
{
name = top;
pos = (87,723);
}
);
layerId = "3DD6C797-E5ED-486C-89DE-75EDF9B2F8B8";
shapes = (
{
closed = 1;
nodes = (
(193,545,l),
(182,522,l),
(145,604,l),
(171,596,l),
(-51,539,l),
(-9,572,l),
(29,490,l),
(-30,485,l)
);
},
{
closed = 1;
nodes = (
(165,636,l),
(186,620,l),
(-13,676,l),
(37,675,l),
(10,590,l),
(-28,620,l),
(166,567,l),
(140,550,l)
);
},
{
closed = 1;
nodes = (
(10,554,l),
(65,554,l),
(65,693,l),
(10,693,l)
);
}
);
width = 174;
}
);
unicode = 1557;
},
{
glyphname = "dotabove-ar";
layers = (
{
anchors = (
{
name = _top;
pos = (84,500);
},
{
name = top;
pos = (84,653);
}
);
layerId = "3DD6C797-E5ED-486C-89DE-75EDF9B2F8B8";
shapes = (
{
closed = 1;
nodes = (
(167,541,l),
(148,613,l),
(0,573,l),
(19,500,l)
);
}
);
width = 167;
}
);
},
{
glyphname = "twodotsverticalabove-ar";
layers = (
{
anchors = (
{
name = _top;
pos = (84,500);
},
{
name = top;
pos = (84,751);
}
);
layerId = "3DD6C797-E5ED-486C-89DE-75EDF9B2F8B8";
shapes = (
{
closed = 1;
nodes = (
(167,642,l),
(148,714,l),
(0,674,l),
(19,601,l)
);
},
{
closed = 1;
nodes = (
(167,541,l),
(148,613,l),
(0,573,l),
(19,500,l)
);
}
);
width = 167;
}
);
},
{
glyphname = "threedotsupabove-ar";
layers = (
{
anchors = (
{
name = _top;
pos = (96,453);
},
{
name = top;
pos = (96,646);
}
);
layerId = "3DD6C797-E5ED-486C-89DE-75EDF9B2F8B8";
shapes = (
{
closed = 1;
nodes = (
(-52,488,l),
(167,548,l),
(148,620,l),
(-71,560,l),
(-9,616,l),
(32,456,l)
);
},
{
closed = 1;
nodes = (
(85,472,l),
(202,504,l),
(202,411,l),
(148,620,l),
(-71,560,l),
(65,645,l),
(128,399,l)
);
}
);
width = 180;
}
);
},
{
glyphname = "wasla-ar";
layers = (
{
anchors = (
{
name = _top;
pos = (90,500);
},
{
name = top;
pos = (90,690);
}
);
layerId = "3DD6C797-E5ED-486C-89DE-75EDF9B2F8B8";
shapes = (
{
closed = 1;
nodes = (
(198,545,l),
(187,522,l),
(150,604,l),
(176,596,l),
(-46,539,l),
(-4,572,l),
(34,490,l),
(-25,485,l)
);
},
{
closed = 1;
nodes = (
(169,636,l),
(190,620,l),
(-9,676,l),
(20,675,l),
(-7,590,l),
(-24,620,l),
(170,567,l),
(144,550,l)
);
},
{
closed = 1;
nodes = (
(-19,605,l),
(-27,674,l),
(43,519,l),
(21,533,l),
(103,567,l),
(97,539,l),
(26,693,l),
(82,605,l)
);
}
);
width = 179;
}
);
},
{
glyphname = "gafsarkashabove-ar";
layers = (
{
anchors = (
{
name = _top;
pos = (96,500);
},
{
name = top;
pos = (96,566);
}
);
layerId = "3DD6C797-E5ED-486C-89DE-75EDF9B2F8B8";
shapes = (
{
closed = 1;
nodes = (
(-14,498,l),
(210,530,l),
(197,501,l),
(185,570,l),
(206,548,l),
(-9,518,l),
(-3,537,l),
(6,484,l)
);
}
);
width = 192;
}
);
},
{
glyphname = "hamzaabove-ar";
layers = (
{
anchors = (
{
name = _top;
pos = (88,500);
},
{
name = top;
pos = (88,708);
}
);
layerId = "3DD6C797-E5ED-486C-89DE-75EDF9B2F8B8";
shapes = (
{
closed = 1;
nodes = (
(143,611,l),
(164,595,l),
(0,641,l),
(25,650,l),
(-2,565,l),
(-19,587,l),
(144,542,l),
(118,525,l)
);
},
{
closed = 1;
nodes = (
(141,696,l),
(163,684,l),
(-8,687,l),
(51,731,l),
(17,625,l),
(-1,632,l),
(144,628,l),
(120,607,l)
);
},
{
closed = 1;
nodes = (
(193,545,l),
(182,522,l),
(159,611,l),
(171,596,l),
(-52,536,l),
(-9,572,l),
(13,487,l),
(-30,485,l)
);
}
);
width = 174;
}
);
unicode = 1620;
},
{
glyphname = "dammatan-ar";
layers = (
{
layerId = "3DD6C797-E5ED-486C-89DE-75EDF9B2F8B8";
shapes = (
{
closed = 1;
nodes = (
(0,500,l),
(20,500,l),
(20,551,l),
(0,551,l)
);
},
{
ref = "damma-ar";
}
);
width = 153;
}
);
unicode = 1612;
},
{
glyphname = "fatha-ar";
layers = (
{
anchors = (
{
name = _top;
pos = (76.5,500);
},
{
name = top;
pos = (77,537);
}
);
layerId = "3DD6C797-E5ED-486C-89DE-75EDF9B2F8B8";
shapes = (
{
closed = 1;
nodes = (
(153,500,l),
(153,520,l),
(0,520,l),
(0,500,l)
);
}
);
width = 153;
}
);
unicode = 1614;
},
{
glyphname = "damma-ar";
layers = (
{
anchors = (
{
name = _top;
pos = (77,500);
},
{
name = top;
pos = (77,612);
}
);
layerId = "3DD6C797-E5ED-486C-89DE-75EDF9B2F8B8";
shapes = (
{
closed = 1;
nodes = (
(153,500,l),
(153,520,l),
(0,520,l),
(0,500,l)
);
},
{
closed = 1;
nodes = (
(91,500,l),
(153,500,l),
(153,562,l),
(91,562,l)
);
}
);
width = 153;
}
);
unicode = 1615;
},
{
glyphname = "shadda-ar";
layers = (
{
anchors = (
{
name = _top;
pos = (77,500);
},
{
name = top;
pos = (77,602);
}
);
layerId = "3DD6C797-E5ED-486C-89DE-75EDF9B2F8B8";
shapes = (
{
closed = 1;
nodes = (
(87,500,l),
(87,520,l),
(0,520,l),
(0,500,l)
);
},
{
closed = 1;
nodes = (
(20,552,l),
(0,552,l),
(0,500,l),
(20,500,l)
);
},
{
closed = 1;
nodes = (
(87,572,l),
(67,572,l),
(67,500,l),
(87,500,l)
);
},
{
closed = 1;
nodes = (
(134,510,l),
(134,530,l),
(67,530,l),
(67,510,l)
);
},
{
closed = 1;
nodes = (
(153,582,l),
(133,582,l),
(133,510,l),
(153,510,l)
);
}
);
width = 153;
}
);
unicode = 1617;
},
{
glyphname = "sukun-ar";
layers = (
{
anchors = (
{
name = _top;
pos = (47,500);
},
{
name = top;
pos = (47,643);
}
);
layerId = "3DD6C797-E5ED-486C-89DE-75EDF9B2F8B8";
shapes = (
{
closed = 1;
nodes = (
(93,500,l),
(93,520,l),
(0,520,l),
(0,500,l)
);
},
{
closed = 1;
nodes = (
(20,593,l),
(0,593,l),
(0,500,l),
(20,500,l)
);
},
{
closed = 1;
nodes = (
(0,593,l),
(0,573,l),
(93,573,l),
(93,593,l)
);
},
{
closed = 1;
nodes = (
(73,500,l),
(93,500,l),
(93,593,l),
(73,593,l)
);
}
);
width = 93;
}
);
unicode = 1618;
},
{
glyphname = "madda-ar";
layers = (
{
anchors = (
{
name = _top;
pos = (99,500);
},
{
name = top;
pos = (99,631);
}
);
layerId = "3DD6C797-E5ED-486C-89DE-75EDF9B2F8B8";
shapes = (
{
closed = 1;
nodes = (
(254,578,l),
(205,538,l),
(157,614,l),
(225,625,l),
(13,538,l),
(76,579,l),
(125,503,l),
(68,490,l)
);
},
{
closed = 1;
nodes = (
(136,575,l),
(169,559,l),
(5,605,l),
(30,614,l),
(4,529,l),
(-14,551,l),
(149,506,l),
(111,489,l)
);
},
{
closed = 1;
nodes = (
(4,605,l),
(37,640,l),
(-6,497,l),
(-14,523,l),
(71,494,l),
(42,457,l),
(89,619,l),
(113,575,l)
);
}
);
width = 197;
}
);
unicode = 1619;
},
